<svg viewBox="0 0 442 433" xmlns="http://www.w3.org/2000/svg" xmlns:xlink="http://www.w3.org/1999/xlink" width="442.000000" height="433.000000" fill="none" customFrame="#000000">
	<rect id="Frame 35" width="442.000000" height="433.000000" x="0.000000" y="0.000000" />
	<g id="mobile-login/rafiki">
		<g id="background-complete" opacity="0">
			<path id="Vector" d="M441.533 341.116L0 341.116L0 341.336L441.533 341.336L441.533 341.116Z" fill="rgb(230,230,230)" fill-rule="evenodd" />
			<path id="Vector" d="M110.224 354.477L80.9771 354.477L80.9771 354.697L110.224 354.697L110.224 354.477Z" fill="rgb(230,230,230)" fill-rule="evenodd" />
			<path id="Vector" d="M71.7226 354.477L54.7766 354.477L54.7766 354.697L71.7226 354.697L71.7226 354.477Z" fill="rgb(230,230,230)" fill-rule="evenodd" />
			<path id="Vector" d="M185.929 357.726L168.983 357.726L168.983 357.947L185.929 357.947L185.929 357.726Z" fill="rgb(230,230,230)" fill-rule="evenodd" />
			<path id="Vector" d="M274.289 362.654L236.149 362.654L236.149 362.874L274.289 362.874L274.289 362.654Z" fill="rgb(230,230,230)" fill-rule="evenodd" />
			<path id="Vector" d="M228.29 362.654L222.7 362.654L222.7 362.874L228.29 362.874L228.29 362.654Z" fill="rgb(230,230,230)" fill-rule="evenodd" />
			<path id="Vector" d="M400.338 357.726L317.612 357.726L317.612 357.947L400.338 357.947L400.338 357.726Z" fill="rgb(230,230,230)" fill-rule="evenodd" />
			<path id="Vector" d="M209.287 301.731L38.7754 301.731C37.4396 301.729 36.1594 301.196 35.2157 300.251C34.272 299.306 33.7419 298.024 33.7419 296.689L33.7419 56.9982C33.7536 55.67 34.2887 54.4002 35.2312 53.4643C36.1736 52.5285 37.4473 52.0023 38.7754 52L209.287 52C210.624 52 211.906 52.5312 212.852 53.4769C213.798 54.4225 214.329 55.705 214.329 57.0423L214.329 296.689C214.329 298.026 213.798 299.309 212.852 300.254C211.906 301.2 210.624 301.731 209.287 301.731ZM38.7754 52.1766C37.4982 52.179 36.2741 52.688 35.3718 53.5919C34.4695 54.4959 33.9627 55.7209 33.9627 56.9982L33.9627 296.689C33.9627 297.966 34.4695 299.191 35.3718 300.095C36.2741 300.999 37.4982 301.508 38.7754 301.51L209.287 301.51C210.565 301.508 211.79 300.999 212.693 300.095C213.597 299.192 214.106 297.967 214.108 296.689L214.108 56.9982C214.106 55.7201 213.597 54.4951 212.693 53.5914C211.79 52.6877 210.565 52.1789 209.287 52.1766L38.7754 52.1766Z" fill="rgb(230,230,230)" fill-rule="nonzero" />
			<path id="Vector" d="M400.303 301.731L229.783 301.731C228.446 301.729 227.165 301.197 226.22 300.252C225.275 299.306 224.743 298.025 224.74 296.689L224.74 56.9982C224.754 55.6692 225.291 54.3994 226.235 53.4638C227.179 52.5282 228.454 52.0023 229.783 52L400.303 52C401.629 52.0046 402.901 52.5318 403.841 53.4674C404.782 54.403 405.316 55.6716 405.327 56.9982L405.327 296.689C405.327 298.023 404.798 299.303 403.857 300.248C402.915 301.193 401.637 301.726 400.303 301.731ZM229.783 52.1766C228.505 52.1789 227.279 52.6877 226.376 53.5914C225.472 54.4951 224.963 55.7201 224.961 56.9982L224.961 296.689C224.963 297.967 225.472 299.192 226.376 300.095C227.279 300.999 228.505 301.508 229.783 301.51L400.303 301.51C401.581 301.508 402.806 300.999 403.709 300.095C404.613 299.192 405.122 297.967 405.124 296.689L405.124 56.9982C405.122 55.7201 404.613 54.4951 403.709 53.5914C402.806 52.6877 401.581 52.1789 400.303 52.1766L229.783 52.1766Z" fill="rgb(230,230,230)" fill-rule="nonzero" />
			<path id="Vector" d="M236.132 265.684L216.713 265.684L216.713 342.714L236.132 342.714L236.132 265.684Z" fill="rgb(224,224,224)" fill-rule="evenodd" />
			<path id="Vector" d="M232.441 342.714L236.132 342.714L236.132 332.223L228.573 332.223L232.441 342.714Z" fill="rgb(250,250,250)" fill-rule="nonzero" />
			<path id="Vector" d="M151.04 265.684L131.621 265.684L131.621 342.714L151.04 342.714L151.04 265.684Z" fill="rgb(224,224,224)" fill-rule="evenodd" />
			<path id="Vector" d="M236.132 265.684L147.825 265.684L147.825 336.277L236.132 336.277L236.132 265.684Z" fill="rgb(250,250,250)" fill-rule="evenodd" />
			<path id="Vector" d="M232.926 269.155L232.926 287.832L151.004 287.832L151.004 269.155L232.9 269.155M233.244 268.81L150.686 268.81L150.686 288.167L233.271 288.167L233.271 268.81L233.244 268.81Z" fill="rgb(224,224,224)" fill-rule="nonzero" />
			<path id="Vector" d="M151.508 342.714L147.825 342.714L147.825 332.223L155.375 332.223L151.508 342.714Z" fill="rgb(250,250,250)" fill-rule="nonzero" />
			<path id="Vector" d="M190.027 278.489C190.027 278.875 190.141 279.252 190.356 279.573C190.57 279.894 190.875 280.144 191.232 280.292C191.588 280.439 191.981 280.478 192.359 280.403C192.738 280.327 193.086 280.142 193.358 279.869C193.631 279.596 193.817 279.248 193.893 278.869C193.968 278.491 193.929 278.098 193.782 277.742C193.634 277.385 193.384 277.08 193.063 276.866C192.742 276.652 192.364 276.537 191.978 276.537C191.461 276.537 190.965 276.743 190.599 277.109C190.233 277.475 190.027 277.971 190.027 278.489Z" fill="rgb(230,230,230)" fill-rule="nonzero" />
			<path id="Vector" d="M232.926 291.638L232.926 310.314L151.004 310.314L151.004 291.638L232.9 291.638M233.244 291.302L150.686 291.302L150.686 310.659L233.271 310.659L233.271 291.311L233.244 291.302Z" fill="rgb(224,224,224)" fill-rule="nonzero" />
			<path id="Vector" d="M190.027 301.025C190.027 301.411 190.141 301.788 190.356 302.109C190.57 302.43 190.875 302.68 191.232 302.828C191.588 302.975 191.981 303.014 192.359 302.939C192.738 302.863 193.086 302.677 193.358 302.405C193.631 302.132 193.817 301.784 193.893 301.405C193.968 301.027 193.929 300.634 193.782 300.278C193.634 299.921 193.384 299.616 193.063 299.402C192.742 299.187 192.364 299.073 191.978 299.073C191.461 299.073 190.965 299.279 190.599 299.645C190.233 300.011 190.027 300.507 190.027 301.025Z" fill="rgb(230,230,230)" fill-rule="nonzero" />
			<path id="Vector" d="M232.926 314.129L232.926 332.815L151.004 332.815L151.004 314.129L232.9 314.129M233.244 313.785L150.686 313.785L150.686 333.151L233.271 333.151L233.271 313.785L233.244 313.785Z" fill="rgb(224,224,224)" fill-rule="nonzero" />
			<path id="Vector" d="M190.027 323.472C190.029 323.858 190.145 324.234 190.36 324.554C190.576 324.874 190.881 325.122 191.238 325.269C191.595 325.415 191.987 325.453 192.365 325.376C192.743 325.3 193.09 325.113 193.362 324.84C193.634 324.567 193.819 324.219 193.893 323.841C193.968 323.462 193.929 323.071 193.781 322.714C193.633 322.358 193.383 322.054 193.062 321.84C192.741 321.626 192.364 321.512 191.979 321.512C191.721 321.512 191.467 321.562 191.23 321.661C190.992 321.76 190.777 321.904 190.595 322.086C190.414 322.269 190.271 322.485 190.173 322.723C190.075 322.96 190.026 323.215 190.027 323.472Z" fill="rgb(230,230,230)" fill-rule="nonzero" />
			<path id="Vector" d="M139.18 220.948L119.761 220.948L119.761 342.723L139.18 342.723L139.18 220.948Z" fill="rgb(224,224,224)" fill-rule="evenodd" />
			<path id="Vector" d="M135.489 342.714L139.18 342.714L139.18 332.223L131.63 332.223L135.489 342.714Z" fill="rgb(250,250,250)" fill-rule="nonzero" />
			<path id="Vector" d="M66.6097 220.948L47.191 220.948L47.191 342.723L66.6097 342.723L66.6097 220.948Z" fill="rgb(224,224,224)" fill-rule="evenodd" />
			<path id="Vector" d="M139.18 220.948L63.3865 220.948L63.3865 336.285L139.18 336.285L139.18 220.948Z" fill="rgb(250,250,250)" fill-rule="evenodd" />
			<path id="Vector" d="M135.913 224.198L135.913 250.31L66.6538 250.31L66.6538 224.198L135.913 224.198ZM136.319 223.8L66.2299 223.8L66.2299 250.69L136.301 250.69L136.301 223.809L136.319 223.8Z" fill="rgb(224,224,224)" fill-rule="nonzero" />
			<path id="Vector" d="M135.913 253.498L135.913 322.757L102.921 322.757L102.921 253.498L135.913 253.498ZM136.319 253.092L102.524 253.092L102.524 323.163L136.319 323.163L136.319 253.092Z" fill="rgb(224,224,224)" fill-rule="nonzero" />
			<path id="Vector" d="M99.6451 253.498L99.6451 322.757L66.6538 322.757L66.6538 253.498L99.6451 253.498ZM100.043 253.092L66.2299 253.092L66.2299 323.163L100.025 323.163L100.025 253.092L100.043 253.092Z" fill="rgb(224,224,224)" fill-rule="nonzero" />
			<path id="Vector" d="M67.0777 342.714L63.3865 342.714L63.3865 332.223L70.9455 332.223L67.0777 342.714Z" fill="rgb(250,250,250)" fill-rule="nonzero" />
			<path id="Vector" d="M99.3272 237.267C99.3255 237.655 99.439 238.035 99.6533 238.359C99.8677 238.682 100.173 238.935 100.531 239.085C100.889 239.234 101.284 239.275 101.665 239.2C102.046 239.125 102.396 238.939 102.671 238.665C102.946 238.392 103.133 238.042 103.21 237.662C103.286 237.281 103.248 236.887 103.1 236.528C102.952 236.169 102.7 235.862 102.378 235.647C102.055 235.431 101.676 235.316 101.288 235.316C100.769 235.316 100.272 235.521 99.9045 235.887C99.5371 236.252 99.3296 236.749 99.3272 237.267Z" fill="rgb(230,230,230)" fill-rule="nonzero" />
			<path id="Vector" d="M106.321 286.48C106.321 286.869 106.436 287.248 106.652 287.57C106.868 287.893 107.175 288.144 107.533 288.292C107.892 288.441 108.287 288.479 108.667 288.402C109.048 288.326 109.397 288.139 109.671 287.864C109.945 287.588 110.131 287.238 110.205 286.857C110.28 286.477 110.24 286.082 110.09 285.724C109.94 285.366 109.688 285.06 109.364 284.846C109.041 284.632 108.661 284.518 108.273 284.52C108.016 284.52 107.761 284.571 107.524 284.669C107.286 284.768 107.071 284.913 106.89 285.095C106.708 285.277 106.565 285.493 106.467 285.731C106.37 285.969 106.32 286.223 106.321 286.48Z" fill="rgb(230,230,230)" fill-rule="nonzero" />
			<path id="Vector" d="M92.3422 286.48C92.3439 286.866 92.4599 287.242 92.6754 287.562C92.8909 287.882 93.1963 288.131 93.553 288.277C93.9098 288.423 94.3019 288.461 94.6799 288.385C95.0579 288.308 95.4048 288.122 95.6768 287.848C95.9489 287.575 96.1339 287.227 96.2085 286.849C96.2831 286.471 96.2439 286.079 96.0959 285.723C95.948 285.367 95.6978 285.062 95.3771 284.848C95.0563 284.634 94.6794 284.52 94.2938 284.52C94.0367 284.52 93.7822 284.571 93.5449 284.669C93.3075 284.768 93.092 284.913 92.9107 285.095C92.7293 285.277 92.5857 285.493 92.4882 285.731C92.3906 285.969 92.341 286.223 92.3422 286.48Z" fill="rgb(230,230,230)" fill-rule="nonzero" />
			<path id="Vector" d="M90.1345 186.994L81.9485 186.994C82.7029 190.965 83.1779 194.984 83.3702 199.022C83.3702 203.437 77.1358 220.948 86.0194 220.948C94.9031 220.948 88.6686 203.481 88.6686 199.022C88.8755 194.983 89.3653 190.964 90.1345 186.994Z" fill="rgb(224,224,224)" fill-rule="nonzero" />
			<path id="Vector" d="M58.9888 204.903L58.9888 210.201C58.9981 213.042 60.1305 215.763 62.139 217.771C64.1474 219.78 66.8688 220.912 69.7092 220.922L75.0076 220.922C77.8479 220.912 80.5693 219.78 82.5778 217.771C84.5862 215.763 85.7187 213.042 85.728 210.201L85.728 204.903L58.9888 204.903Z" fill="rgb(245,245,245)" fill-rule="nonzero" />
			<path id="Vector" d="M172.789 254.452C172.789 260.633 179.704 265.684 188.155 265.684L195.785 265.684C204.235 265.684 211.15 260.633 211.15 254.452L172.789 254.452Z" fill="rgb(224,224,224)" fill-rule="nonzero" />
			<path id="Vector" d="M374.959 245.391C370.331 249.171 363.938 256.085 358.092 265.817C354.189 272.298 351.84 279.063 350.807 288.052C350.807 277.897 350.868 266.991 350.904 256.695C352.078 254.045 354.763 247.935 356.688 243.113C363.108 227.015 365.519 223.05 371.285 209.168C378.994 190.624 386.889 168.671 384.628 170.428C380.018 174.004 362.357 207.075 360.45 211.808C355.251 224.44 352.036 237.8 350.922 251.414C350.922 241.7 350.992 232.869 351.027 226.017C351.151 203.666 351.531 196.452 351.716 194.227C352.432 193.096 353.27 191.78 353.765 191.074C357.915 185.069 359.514 179.965 363.417 171.011C368.963 158.339 373.731 135.829 372.336 136.96C366.525 141.693 361.951 151.848 355.928 164.803C349.906 177.757 351.628 185.202 350.436 196.258C350.189 198.43 349.994 206.625 349.853 217.972C348.299 205.874 345.367 197.909 340.024 190.668C333.454 181.758 327.096 175.744 322.434 172.6C317.771 169.457 330.487 191.339 336.563 200.858C341.976 209.371 346.965 216.868 349.809 224.26C349.659 239.651 349.588 259.132 349.588 277.244C348.193 268.996 345.914 260.103 342.877 253.224C339.221 244.959 333.605 232.278 329.127 227.977C328.059 226.944 333.808 251.608 337.499 258.16C341.19 264.713 343.901 270.903 346.224 274.621C346.762 275.504 348.564 278.833 349.588 280.758C349.588 302.897 349.712 322.43 349.906 329.079L350.86 329.079C350.798 327.366 350.78 316.098 350.807 301.192C353.111 293.103 358.375 283.867 362.719 275.442C367.452 266.32 379.586 241.638 374.959 245.391Z" fill="rgb(224,224,224)" fill-rule="nonzero" />
			<path id="Vector" d="M364.212 342.714L336.536 342.714L334.443 315.586L366.304 315.586L364.212 342.714Z" fill="rgb(240,240,240)" fill-rule="nonzero" />
			<path id="Vector" d="M368.362 318.748L332.377 318.748L331.353 309.59L369.395 309.59L368.362 318.748Z" fill="rgb(245,245,245)" fill-rule="nonzero" />
			<path id="Vector" d="M109.73 70.1028L60.2339 70.1028L60.2339 124.455L109.73 124.455L109.73 70.1028Z" fill="rgb(224,224,224)" fill-rule="evenodd" />
			<path id="Vector" d="M115.09 70.1028L63.9604 70.1028L63.9604 124.455L115.09 124.455L115.09 70.1028Z" fill="rgb(245,245,245)" fill-rule="evenodd" />
			<path id="Vector" d="M45.787 0L0 0L0 42.5638L45.787 42.5638L45.787 0Z" fill="rgb(255,255,255)" fill-rule="evenodd" transform="matrix(6.12323e-17,1,-1,6.12323e-17,110.807,74.3857)" />
			<path id="Vector" d="M23.5867 0L0 0L0 21.9265L23.5867 21.9265L23.5867 0Z" fill="rgb(245,245,245)" fill-rule="evenodd" transform="matrix(6.12323e-17,1,-1,6.12323e-17,100.484,85.4771)" />
			<path id="Vector" d="M362.101 76.4344L316.12 76.4344L316.12 126.928L362.101 126.928L362.101 76.4344Z" fill="rgb(224,224,224)" fill-rule="evenodd" />
			<path id="Vector" d="M367.082 76.4344L319.59 76.4344L319.59 126.928L367.082 126.928L367.082 76.4344Z" fill="rgb(245,245,245)" fill-rule="evenodd" />
			<path id="Vector" d="M42.5285 0L0 0L0 39.5349L42.5285 39.5349L42.5285 0Z" fill="rgb(255,255,255)" fill-rule="evenodd" transform="matrix(6.12323e-17,1,-1,6.12323e-17,363.108,80.417)" />
			<path id="Vector" d="M343.336 114.018C350.149 114.018 355.672 108.494 355.672 101.681C355.672 94.8681 350.149 89.3448 343.336 89.3448C336.523 89.3448 331 94.8681 331 101.681C331 108.494 336.523 114.018 343.336 114.018Z" fill="rgb(245,245,245)" fill-rule="evenodd" />
			<path id="Vector" d="M161.151 102.511L124.433 102.511L124.433 142.832L161.151 142.832L161.151 102.511Z" fill="rgb(224,224,224)" fill-rule="evenodd" />
			<path id="Vector" d="M165.124 102.511L127.197 102.511L127.197 142.832L165.124 142.832L165.124 102.511Z" fill="rgb(245,245,245)" fill-rule="evenodd" />
			<path id="Vector" d="M33.9627 0L0 0L0 31.5696L33.9627 31.5696L33.9627 0Z" fill="rgb(255,255,255)" fill-rule="evenodd" transform="matrix(6.12323e-17,1,-1,6.12323e-17,161.945,105.69)" />
			<path id="Vector" d="M146.165 114.08L137.529 129.039L154.801 129.039L146.165 114.08Z" fill="rgb(245,245,245)" fill-rule="nonzero" />
		</g>
		<g id="background-simple" opacity="0">
			<path id="Vector" d="M118.737 213.371C170.432 266.673 238.366 303.674 301.337 243.952C333.799 213.186 376.698 130.098 334.364 92.0646C276.02 39.6635 242.525 125.4 198.928 137.022C169.028 144.969 143.887 99.0497 108.096 129.727C79.8026 153.968 97.2432 191.215 118.737 213.371Z" fill="rgb(76,175,79)" fill-rule="nonzero" />
			<path id="Vector" d="M118.737 213.371C170.432 266.673 238.366 303.674 301.337 243.952C333.799 213.186 376.698 130.098 334.364 92.0646C276.02 39.6635 242.525 125.4 198.928 137.022C169.028 144.969 143.887 99.0497 108.096 129.727C79.8026 153.968 97.2432 191.215 118.737 213.371Z" opacity="0.899999976" fill="rgb(255,255,255)" fill-rule="nonzero" />
		</g>
		<g id="Shadow">
			<path id="Vector" d="M220.766 380.995C315.327 380.995 391.984 376.52 391.984 370.999C391.984 365.478 315.327 361.002 220.766 361.002C126.206 361.002 49.5488 365.478 49.5488 370.999C49.5488 376.52 126.206 380.995 220.766 380.995Z" fill="rgb(245,245,245)" fill-rule="evenodd" />
		</g>
		<g id="character-2">
			<path id="Vector" d="M308.411 147.751L299.651 144.219C299.651 144.219 288.091 165.297 284.78 166.366C280.276 167.814 270.951 171.841 265.423 172.547C264.672 173.43 263.445 176.177 263.56 177.175C270.986 179.656 287.305 176.362 290.802 173.766C298.759 167.876 308.411 147.751 308.411 147.751Z" fill="rgb(229,138,123)" fill-rule="nonzero" />
			<path id="Vector" d="M311.104 142.956C312.738 148.987 303.889 161.12 303.889 161.12L292.295 154.621C292.295 154.621 294.467 149.632 297.116 144.554C301.364 136.35 309.241 136.077 311.104 142.956Z" fill="rgb(76,175,79)" fill-rule="nonzero" />
			<path id="Vector" d="M311.104 142.956C312.738 148.987 303.889 161.12 303.889 161.12L292.295 154.621C292.295 154.621 294.467 149.632 297.116 144.554C301.364 136.35 309.241 136.077 311.104 142.956Z" opacity="0.200000003" fill="rgb(0,0,0)" fill-rule="nonzero" />
			<path id="Vector" d="M296.896 157.217L301.461 159.778L302.265 145.764C299.607 147.804 297.734 153.95 296.896 157.217Z" opacity="0.200000003" fill="rgb(0,0,0)" fill-rule="nonzero" />
			<path id="Vector" d="M303.474 138.417C303.474 138.417 294.449 158.498 299.712 195.887L335.274 195.887C335.839 190.429 333.967 163.796 340.74 138.081C336.839 137.319 332.892 136.814 328.924 136.571C323.892 136.28 318.847 136.28 313.815 136.571C310.327 136.925 306.87 137.542 303.474 138.417Z" fill="rgb(76,175,79)" fill-rule="nonzero" />
			<path id="Vector" d="M303.474 138.417C303.474 138.417 294.449 158.498 299.712 195.887L335.274 195.887C335.839 190.429 333.967 163.796 340.74 138.081C336.839 137.319 332.892 136.814 328.924 136.571C323.892 136.28 318.847 136.28 313.815 136.571C310.327 136.925 306.87 137.542 303.474 138.417Z" opacity="0.200000003" fill="rgb(0,0,0)" fill-rule="nonzero" />
			<g style="mix-blend-mode:multiply">
				<path id="Vector" d="M295.227 371.793C295.174 372.747 308.658 373.515 325.339 373.515C342.02 373.515 355.602 372.747 355.655 371.793C355.708 370.84 342.232 370.08 325.542 370.08C308.852 370.08 295.288 370.849 295.227 371.793Z" fill="rgb(232,236,241)" fill-rule="nonzero" />
			</g>
			<path id="Vector" d="M6.76326 0L0 0L0 15.05L6.76326 15.05L6.76326 0Z" fill="rgb(229,138,123)" fill-rule="evenodd" transform="matrix(0.932568,-0.360994,0.360994,0.932568,312.657,349.176)" />
			<path id="Vector" d="M347.089 365.003L340.44 365.003L338.002 349.611L344.652 349.611L347.089 365.003Z" fill="rgb(229,138,123)" fill-rule="nonzero" />
			<path id="Vector" d="M339.98 364.234L347.451 364.234C347.581 364.235 347.706 364.281 347.805 364.365C347.903 364.449 347.969 364.566 347.99 364.694L348.952 370.601C348.973 370.75 348.961 370.9 348.917 371.044C348.874 371.187 348.801 371.319 348.702 371.431C348.603 371.544 348.481 371.633 348.345 371.694C348.208 371.755 348.06 371.786 347.91 371.785C345.305 371.74 344.051 371.581 340.766 371.581C338.744 371.581 334.585 371.793 331.777 371.793C328.968 371.793 328.783 369.038 329.94 368.782C335.132 367.661 337.146 366.133 338.876 364.649C339.182 364.381 339.574 364.234 339.98 364.234Z" fill="rgb(38,50,56)" fill-rule="nonzero" />
			<path id="Vector" d="M317.904 361.956L324.968 359.89C325.094 359.854 325.229 359.863 325.349 359.914C325.47 359.966 325.569 360.057 325.63 360.172L328.28 365.471C328.341 365.605 328.373 365.751 328.372 365.899C328.371 366.047 328.338 366.193 328.275 366.327C328.212 366.46 328.12 366.579 328.007 366.673C327.893 366.768 327.76 366.837 327.617 366.875C325.048 367.581 323.326 368.014 320.111 368.95C317.895 369.595 315.634 370.645 313.444 371.343C311.925 371.829 308.358 371.846 306.512 371.846C303.783 371.846 303.174 368.968 304.349 368.835C307.307 368.508 307.704 368.659 309.338 367.837C312.011 366.669 314.434 364.996 316.473 362.91C316.858 362.471 317.351 362.142 317.904 361.956Z" fill="rgb(38,50,56)" fill-rule="nonzero" />
			<path id="Vector" d="M266.536 172.512L259.224 169.448L256.213 177.554C259.21 178.011 262.258 178.011 265.255 177.554L266.536 172.512Z" fill="rgb(229,138,123)" fill-rule="nonzero" />
			<path id="Vector" d="M253.784 169.236L253.59 174.623L256.213 177.537L259.224 169.43L253.784 169.236Z" fill="rgb(229,138,123)" fill-rule="nonzero" />
			<path id="Vector" d="M6.78197 0L0 0L0 7.77981L6.78197 7.77981L6.78197 0Z" fill="rgb(207,111,100)" fill-rule="evenodd" transform="matrix(0.932891,-0.36016,0.36016,0.932891,313.502,350.369)" />
			<path id="Vector" d="M344.652 349.611L338.002 349.611L339.265 357.55L345.915 357.55L344.652 349.611Z" fill="rgb(207,111,100)" fill-rule="nonzero" />
			<path id="Vector" d="M298.582 185.776C298.715 187.374 298.865 189.008 299.059 190.685L325.498 182.102C329.627 180.878 333.215 178.284 335.671 174.746C335.777 172.388 335.909 169.907 336.112 167.32C336.201 166.066 336.307 164.776 336.422 163.469C336.536 162.162 336.695 160.714 336.863 159.319L298.582 185.776Z" opacity="0.200000003" fill="rgb(0,0,0)" fill-rule="nonzero" />
			<path id="Vector" d="M307.219 156.811L306.336 156.705C306.857 152.29 310.15 148.811 313.621 148.899L313.621 149.782C310.583 149.72 307.687 152.855 307.219 156.811Z" fill="rgb(255,255,255)" fill-rule="nonzero" />
			<path id="Vector" d="M311.925 164.962L311.775 164.962L311.775 164.079C314.813 164.193 317.665 161.023 318.133 157.076L319.016 157.182C318.548 161.5 315.36 164.962 311.925 164.962Z" fill="rgb(255,255,255)" fill-rule="nonzero" />
			<path id="Vector" d="M328.43 119.555C327.185 124.42 325.719 133.33 328.924 136.571C328.924 136.571 326.681 141.508 317.648 141.508C309.391 141.508 313.815 136.571 313.815 136.571C319.308 135.282 319.405 131.273 318.681 127.476L328.43 119.555Z" fill="rgb(229,138,123)" fill-rule="nonzero" />
			<path id="Vector" d="M324.456 122.786L318.69 127.476C318.868 128.348 318.972 129.234 318.999 130.125C320.685 131.803 324.067 127.555 324.412 125.383C324.587 124.527 324.602 123.647 324.456 122.786Z" fill="rgb(207,111,100)" fill-rule="nonzero" />
			<path id="Vector" d="M308.773 119.493C309.174 120.188 309.714 120.793 310.36 121.27C311.006 121.748 311.743 122.086 312.526 122.266C314.645 122.734 315.705 120.782 315.122 118.822C314.601 117.055 312.861 114.68 310.707 115.086C310.245 115.181 309.813 115.386 309.447 115.682C309.08 115.978 308.79 116.358 308.601 116.79C308.412 117.221 308.328 117.692 308.358 118.162C308.388 118.632 308.53 119.089 308.773 119.493Z" fill="rgb(207,111,100)" fill-rule="nonzero" />
			<path id="Vector" d="M312.279 103.924C308.976 105.434 307.81 118.557 311.961 120.499C316.111 122.442 318.531 101.054 312.279 103.924Z" fill="rgb(38,50,56)" fill-rule="nonzero" />
			<path id="Vector" d="M329.436 112.234C328.642 118.822 328.553 122.698 325.021 126.072C323.927 127.191 322.544 127.986 321.026 128.369C319.508 128.752 317.914 128.709 316.419 128.243C314.924 127.777 313.587 126.907 312.556 125.729C311.525 124.551 310.839 123.111 310.574 121.568C309.506 115.651 310.98 105.876 317.586 103.253C318.974 102.641 320.5 102.411 322.006 102.588C323.513 102.764 324.945 103.34 326.154 104.256C327.363 105.172 328.305 106.395 328.882 107.798C329.459 109.201 329.651 110.732 329.436 112.234Z" fill="rgb(229,138,123)" fill-rule="nonzero" />
			<path id="Vector" d="M318.584 107.333C323.476 106.088 327.07 105.24 325.781 109.311C324.076 114.751 322.028 120.014 324.774 120.252C326.452 120.402 333.869 117.259 332.925 114.071C332.103 111.298 335.574 110.538 336.192 109.134C338.479 104.048 331.936 104.719 333.101 101.628C334.267 98.5375 327.803 93.5571 324.271 96.0385C318.522 100.048 308.658 99.9858 313.842 93.3893C317.559 88.6825 310.927 89.6451 310.927 89.6451C310.927 89.6451 314.937 92.0205 308.19 95.6941C301.055 99.6149 307.598 110.15 318.584 107.333Z" fill="rgb(38,50,56)" fill-rule="nonzero" />
			<path id="Vector" d="M332.033 119.493C331.067 120.89 329.616 121.879 327.962 122.266C325.781 122.734 324.942 120.782 325.763 118.822C326.496 117.055 328.509 114.68 330.593 115.086C332.677 115.492 333.154 117.762 332.033 119.493Z" fill="rgb(229,138,123)" fill-rule="nonzero" />
			<path id="Vector" d="M299.713 195.887C299.713 195.887 293.743 249.312 293.275 269.587C292.798 290.675 313.506 356.472 313.506 356.472L324.103 352.057C324.103 352.057 311.74 291.938 313.506 271.23C315.378 248.65 323.114 195.922 323.114 195.922L299.713 195.887Z" fill="rgb(76,175,79)" fill-rule="nonzero" />
			<path id="Vector" d="M314.548 210.554C309.788 220.427 312.994 239.952 315.572 251.52C316.553 243.351 317.718 234.485 318.822 226.282C318.716 213.672 317.736 203.931 314.548 210.554Z" opacity="0.200000003" fill="rgb(0,0,0)" fill-rule="nonzero" />
			<path id="Vector" d="M323.635 348.56C323.688 348.56 324.889 351.933 324.889 351.933L312.667 357.073L310.742 353.487L323.635 348.56Z" fill="rgb(76,175,79)" fill-rule="nonzero" />
			<path id="Vector" d="M312.332 195.887C312.332 195.887 316.897 246.698 319.917 265.728C323.237 286.578 336.254 356.013 336.254 356.013L348.431 356.013C348.431 356.013 341.137 288.264 339.76 267.618C338.258 245.224 335.274 195.887 335.274 195.887L312.332 195.887Z" fill="rgb(76,175,79)" fill-rule="nonzero" />
			<path id="Vector" d="M348.617 352.843C348.67 352.843 349.023 356.243 349.023 356.243L335.636 356.243L334.682 352.339L348.617 352.843Z" fill="rgb(76,175,79)" fill-rule="nonzero" />
			<path id="Vector" d="M343.954 348.816C343.926 348.816 343.9 348.807 343.879 348.789C343.857 348.771 343.844 348.746 343.839 348.719C343.769 348.101 337.19 286.904 335.954 268.36C334.611 248.244 331.909 203.622 331.883 203.172C331.881 203.157 331.883 203.143 331.888 203.129C331.893 203.115 331.9 203.102 331.91 203.091C331.92 203.081 331.932 203.072 331.946 203.066C331.959 203.06 331.974 203.057 331.989 203.057C332.018 203.057 332.045 203.068 332.067 203.088C332.088 203.107 332.101 203.134 332.103 203.163C332.103 203.614 334.832 248.2 336.174 268.351C337.411 286.896 343.989 348.048 344.051 348.71C344.054 348.725 344.053 348.74 344.05 348.754C344.046 348.768 344.039 348.782 344.03 348.793C344.021 348.805 344.009 348.815 343.996 348.822C343.983 348.829 343.969 348.833 343.954 348.834L343.954 348.816Z" opacity="0.200000003" fill="rgb(0,0,0)" fill-rule="nonzero" />
			<path id="Vector" d="M319.334 114.071C319.334 114.609 318.999 115.042 318.645 115.042C318.292 115.042 318.036 114.609 318.071 114.071C318.107 113.532 318.407 113.099 318.76 113.099C319.113 113.099 319.37 113.541 319.334 114.071Z" fill="rgb(38,50,56)" fill-rule="nonzero" />
			<path id="Vector" d="M313.276 114.071C313.276 114.609 312.932 115.042 312.588 115.042C312.243 115.042 311.978 114.609 312.005 114.071C312.031 113.532 312.349 113.099 312.702 113.099C313.056 113.099 313.312 113.541 313.276 114.071Z" fill="rgb(38,50,56)" fill-rule="nonzero" />
			<path id="Vector" d="M315.184 114.344C314.447 115.989 313.497 117.53 312.358 118.928C313.241 119.811 314.892 119.404 314.892 119.404L315.184 114.344Z" fill="rgb(223,87,83)" fill-rule="nonzero" />
			<path id="Vector" d="M315.343 121.656C315.322 121.656 315.302 121.652 315.283 121.644C315.264 121.636 315.247 121.624 315.233 121.609C315.219 121.594 315.208 121.577 315.201 121.557C315.194 121.538 315.191 121.518 315.193 121.497C315.195 121.454 315.214 121.414 315.245 121.384C315.276 121.355 315.317 121.338 315.36 121.338C316.036 121.343 316.704 121.196 317.315 120.909C317.926 120.622 318.465 120.201 318.893 119.678C318.923 119.651 318.962 119.637 319.003 119.637C319.044 119.637 319.083 119.651 319.113 119.678C319.142 119.708 319.158 119.747 319.158 119.789C319.158 119.83 319.142 119.869 319.113 119.899C318.656 120.455 318.08 120.901 317.427 121.205C316.775 121.509 316.063 121.663 315.343 121.656Z" fill="rgb(38,50,56)" fill-rule="nonzero" />
			<path id="Vector" d="M320.412 112.446C320.369 112.467 320.322 112.479 320.275 112.479C320.227 112.479 320.18 112.467 320.138 112.446C319.807 112.232 319.432 112.099 319.04 112.058C318.649 112.017 318.254 112.068 317.886 112.207C317.85 112.225 317.811 112.236 317.771 112.238C317.731 112.241 317.691 112.236 317.653 112.222C317.615 112.209 317.58 112.189 317.551 112.162C317.521 112.135 317.497 112.102 317.48 112.066C317.447 111.987 317.446 111.899 317.478 111.82C317.509 111.741 317.57 111.677 317.648 111.642C318.109 111.454 318.61 111.379 319.106 111.425C319.603 111.472 320.081 111.637 320.5 111.907C320.534 111.93 320.563 111.96 320.585 111.994C320.607 112.028 320.623 112.067 320.63 112.107C320.637 112.147 320.637 112.188 320.628 112.228C320.619 112.268 320.603 112.306 320.579 112.34C320.535 112.39 320.476 112.427 320.412 112.446Z" fill="rgb(38,50,56)" fill-rule="nonzero" />
			<path id="Vector" d="M310.936 110.68C310.889 110.668 310.846 110.644 310.813 110.609C310.783 110.58 310.76 110.546 310.744 110.508C310.728 110.47 310.72 110.429 310.72 110.388C310.72 110.347 310.728 110.307 310.744 110.269C310.76 110.231 310.783 110.196 310.813 110.168C311.151 109.788 311.573 109.492 312.044 109.302C312.516 109.112 313.025 109.033 313.532 109.073C313.573 109.079 313.612 109.093 313.647 109.115C313.682 109.137 313.711 109.166 313.735 109.2C313.758 109.234 313.774 109.272 313.781 109.313C313.789 109.353 313.789 109.395 313.78 109.435C313.761 109.516 313.713 109.588 313.644 109.637C313.576 109.686 313.492 109.708 313.409 109.7C313.008 109.674 312.606 109.741 312.234 109.894C311.862 110.047 311.53 110.282 311.263 110.583C311.223 110.627 311.171 110.66 311.113 110.677C311.056 110.694 310.994 110.695 310.936 110.68Z" fill="rgb(38,50,56)" fill-rule="nonzero" />
			<path id="Vector" d="M344.157 146.771L334.973 144.324C334.973 144.324 325.966 166.498 322.778 167.938C318.451 169.916 307.492 176.768 302.83 180.009C302.574 181.113 302.777 184.036 303.36 184.84C311.307 183.391 326.522 177.537 329.701 174.561C336.951 167.77 344.157 146.771 344.157 146.771Z" fill="rgb(229,138,123)" fill-rule="nonzero" />
			<path id="Vector" d="M337.746 365.4C337.298 365.436 336.851 365.314 336.483 365.056C336.37 364.953 336.285 364.822 336.237 364.677C336.189 364.531 336.179 364.376 336.21 364.226C336.215 364.132 336.246 364.041 336.299 363.963C336.352 363.886 336.425 363.824 336.51 363.784C337.252 363.404 339.327 364.72 339.565 364.87C339.591 364.886 339.612 364.911 339.623 364.939C339.634 364.968 339.635 365 339.627 365.029C339.62 365.06 339.604 365.088 339.583 365.112C339.561 365.135 339.534 365.152 339.503 365.162C338.928 365.303 338.339 365.383 337.746 365.4ZM336.863 364.022C336.796 364.008 336.727 364.008 336.66 364.022C336.626 364.04 336.598 364.066 336.579 364.099C336.56 364.132 336.552 364.17 336.554 364.208C336.53 364.311 336.534 364.418 336.565 364.519C336.596 364.619 336.653 364.71 336.731 364.782C337.075 365.091 337.94 365.126 339.08 364.906C338.401 364.459 337.637 364.158 336.837 364.022L336.863 364.022Z" fill="rgb(76,175,79)" fill-rule="nonzero" />
			<path id="Vector" d="M339.459 365.162C339.436 365.169 339.412 365.169 339.389 365.162C338.726 364.791 337.481 363.334 337.667 362.592C337.694 362.474 337.761 362.369 337.855 362.294C337.95 362.219 338.067 362.178 338.188 362.177C338.306 362.161 338.427 362.171 338.541 362.206C338.655 362.241 338.761 362.3 338.85 362.38C339.583 363.007 339.627 364.932 339.627 365.029C339.631 365.058 339.626 365.088 339.611 365.113C339.597 365.139 339.575 365.159 339.548 365.17C339.518 365.177 339.487 365.173 339.459 365.162ZM338.276 362.468L338.214 362.468C338.011 362.468 337.985 362.583 337.976 362.627C337.87 363.06 338.656 364.164 339.309 364.685C339.306 363.939 339.075 363.212 338.647 362.601C338.544 362.511 338.412 362.464 338.276 362.468Z" fill="rgb(76,175,79)" fill-rule="nonzero" />
			<path id="Vector" d="M314.301 364.296C313.76 364.485 313.172 364.485 312.632 364.296C312.509 364.23 312.405 364.133 312.329 364.016C312.254 363.899 312.209 363.764 312.199 363.625C312.188 363.538 312.199 363.449 312.231 363.367C312.264 363.285 312.317 363.213 312.384 363.157C313.091 362.521 315.979 363.157 316.305 363.281C316.336 363.289 316.364 363.307 316.383 363.333C316.402 363.358 316.412 363.39 316.411 363.422C316.413 363.455 316.404 363.488 316.387 363.516C316.369 363.545 316.344 363.567 316.314 363.581C315.664 363.875 314.99 364.114 314.301 364.296ZM312.861 363.245C312.76 363.266 312.666 363.311 312.588 363.378C312.559 363.399 312.538 363.428 312.525 363.46C312.513 363.493 312.51 363.529 312.517 363.563C312.523 363.656 312.552 363.746 312.601 363.824C312.65 363.903 312.719 363.968 312.799 364.014C313.268 364.261 314.354 364.067 315.758 363.475C314.812 363.236 313.833 363.159 312.861 363.245Z" fill="rgb(76,175,79)" fill-rule="nonzero" />
			<path id="Vector" d="M316.288 363.581L316.217 363.581C315.334 363.422 313.568 362.406 313.515 361.647C313.515 361.47 313.594 361.223 314.018 361.082C314.161 361.031 314.313 361.009 314.465 361.018C314.617 361.027 314.765 361.067 314.901 361.135C315.855 361.603 316.358 363.298 316.385 363.378C316.391 363.405 316.39 363.432 316.382 363.459C316.375 363.485 316.36 363.509 316.341 363.528C316.327 363.55 316.309 363.568 316.288 363.581ZM314.195 361.347L314.107 361.347C313.833 361.444 313.833 361.559 313.833 361.594C313.833 362.053 315.113 362.892 316.005 363.175C315.8 362.465 315.365 361.844 314.769 361.409C314.591 361.318 314.387 361.296 314.195 361.347Z" fill="rgb(76,175,79)" fill-rule="nonzero" />
			<path id="Vector" d="M303.58 179.488L294.37 183.727L293.301 186.376L296.701 188.663C296.701 188.663 303.059 187.974 304.87 183.886L303.58 179.488Z" fill="rgb(229,138,123)" fill-rule="nonzero" />
			<path id="Vector" d="M303.969 184.99C303.763 183.22 303.179 181.515 302.256 179.991L303.713 178.896C304.809 180.652 305.508 182.626 305.762 184.681L303.969 184.99Z" fill="rgb(38,50,56)" fill-rule="nonzero" />
			<path id="Vector" d="M305.541 180.742C305.735 181.048 305.831 181.407 305.815 181.77C305.798 182.132 305.671 182.481 305.449 182.768C305.227 183.056 304.923 183.268 304.576 183.376C304.23 183.484 303.858 183.483 303.513 183.372C303.167 183.262 302.864 183.047 302.644 182.758C302.425 182.469 302.299 182.12 302.286 181.757C302.272 181.394 302.37 181.036 302.567 180.731C302.764 180.427 303.05 180.19 303.386 180.053C303.764 179.861 304.202 179.826 304.605 179.954C305.009 180.083 305.345 180.367 305.541 180.742Z" fill="rgb(38,50,56)" fill-rule="nonzero" />
			<path id="Vector" d="M288.144 187.153L289.372 188.39L297.637 184.857L294.37 183.727L288.144 187.153Z" fill="rgb(229,138,123)" fill-rule="nonzero" />
			<path id="Vector" d="M323.635 348.56C323.688 348.56 324.889 351.933 324.889 351.933L312.667 357.073L310.742 353.487L323.635 348.56Z" opacity="0.200000003" fill="rgb(0,0,0)" fill-rule="nonzero" />
			<path id="Vector" d="M348.617 352.843C348.67 352.843 349.023 356.243 349.023 356.243L335.636 356.243L334.682 352.339L348.617 352.843Z" opacity="0.200000003" fill="rgb(0,0,0)" fill-rule="nonzero" />
			<path id="Vector" d="M346.55 144.227C348.979 152.06 339.486 162.772 339.486 162.772L326.372 157.42C327.927 152.893 329.719 148.451 331.741 144.113C335.768 135.432 344.095 136.324 346.55 144.227Z" fill="rgb(76,175,79)" fill-rule="nonzero" />
			<path id="Vector" d="M346.55 144.227C348.979 152.06 339.486 162.772 339.486 162.772L326.372 157.42C327.927 152.893 329.719 148.451 331.741 144.113C335.768 135.432 344.095 136.324 346.55 144.227Z" opacity="0.200000003" fill="rgb(0,0,0)" fill-rule="nonzero" />
		</g>
		<g id="Screen">
			<path id="Vector" d="M216.245 65.7493L210.602 65.7493L210.602 66.6588L216.245 66.6588L216.245 65.7493Z" fill="rgb(76,175,79)" fill-rule="evenodd" />
			<path id="Vector" d="M15.1711 0L0 0L0 0.909557L15.1711 0.909557L15.1711 0Z" fill="rgb(76,175,79)" fill-rule="evenodd" transform="matrix(0.0450143,-0.998986,0.998986,0.0450143,288.608,116.905)" />
			<path id="Vector" d="M287.535 69.8291L183.333 69.8291L173.637 286.816L277.839 286.816L287.535 69.8291Z" fill="rgb(76,175,79)" fill-rule="nonzero" />
			<path id="Vector" d="M284.427 72.8138L180.225 72.8138L170.529 289.801L274.731 289.801L284.427 72.8138Z" opacity="0.560000002" fill="rgb(250,250,250)" fill-rule="nonzero" />
			<path id="Vector" d="M281.318 75.7898L177.117 75.7898L167.412 292.777L271.613 292.777L281.318 75.7898Z" opacity="0.0700000003" fill="rgb(76,175,79)" fill-rule="nonzero" />
			<path id="Vector" d="M269.459 170.428L180.516 170.428L179.775 187.03L268.717 187.03L269.459 170.428Z" fill="rgb(255,255,255)" fill-rule="nonzero" />
			<path id="Vector" d="M229.429 158.312L181.055 158.312L180.728 165.739L229.103 165.739L229.429 158.312Z" fill="rgb(76,175,79)" fill-rule="nonzero" />
			<path id="Vector" d="M267.454 215.235L178.512 215.235L177.77 231.836L266.712 231.836L267.454 215.235Z" fill="rgb(255,255,255)" fill-rule="nonzero" />
			<path id="Vector" d="M251.144 254.257L191.334 254.257L190.442 274.153L250.252 274.153L251.144 254.257Z" opacity="0.469999999" fill="rgb(76,175,79)" fill-rule="nonzero" />
			<path id="Vector" d="M247.144 277.243L187.334 277.243C187.308 277.25 187.28 277.25 187.254 277.243C187.245 277.218 187.245 277.19 187.254 277.164L188.137 257.26C188.137 257.246 188.14 257.233 188.145 257.22C188.151 257.208 188.159 257.197 188.169 257.188C188.179 257.179 188.19 257.172 188.203 257.167C188.216 257.163 188.23 257.161 188.243 257.163L248.053 257.163C248.064 257.157 248.076 257.154 248.089 257.154C248.101 257.154 248.113 257.157 248.124 257.163C248.13 257.173 248.133 257.185 248.133 257.198C248.133 257.21 248.13 257.223 248.124 257.233L247.258 277.182C247.248 277.202 247.231 277.219 247.211 277.23C247.19 277.241 247.167 277.246 247.144 277.243ZM187.44 277.032L247.038 277.032L247.921 257.339L188.323 257.339L187.44 277.032Z" fill="rgb(255,255,255)" fill-rule="nonzero" />
			<path id="Vector" d="M218.983 203.119L179.05 203.119L178.724 210.554L218.647 210.554L218.983 203.119Z" fill="rgb(76,175,79)" fill-rule="nonzero" />
			<path id="Vector" d="M250.005 116.799C249.776 121.631 248.058 126.273 245.086 130.09C242.886 132.972 240.054 135.312 236.809 136.93C233.564 138.548 229.991 139.401 226.365 139.424C223.435 139.446 220.531 138.868 217.832 137.726C215.134 136.583 212.698 134.9 210.674 132.781C208.651 130.661 207.083 128.15 206.066 125.402C205.05 122.653 204.607 119.726 204.765 116.799C205.076 110.727 207.694 105.003 212.085 100.798C216.476 96.5927 222.308 94.2236 228.387 94.1752C231.32 94.1479 234.227 94.7222 236.929 95.8626C239.63 97.0031 242.07 98.6854 244.096 100.806C246.122 102.926 247.691 105.439 248.708 108.19C249.724 110.941 250.165 113.871 250.005 116.799Z" fill="rgb(255,255,255)" fill-rule="nonzero" />
			<path id="Vector" d="M252.133 98.9084C252.075 100.193 251.618 101.428 250.826 102.441C250.24 103.206 249.486 103.828 248.623 104.258C247.76 104.688 246.81 104.915 245.846 104.922C244.911 104.928 243.99 104.705 243.162 104.272C242.333 103.839 241.624 103.211 241.095 102.441C240.394 101.4 240.047 100.162 240.106 98.9084C240.191 97.2963 240.888 95.7775 242.055 94.6616C243.221 93.5458 244.77 92.917 246.384 92.9036C247.163 92.8964 247.935 93.0489 248.653 93.3515C249.37 93.6541 250.018 94.1004 250.557 94.663C251.096 95.2256 251.513 95.8925 251.784 96.6226C252.055 97.3528 252.174 98.1307 252.133 98.9084Z" fill="rgb(76,175,79)" fill-rule="nonzero" />
			<path id="Vector" d="M190.098 178.729C190.055 179.44 189.745 180.109 189.228 180.601C188.712 181.093 188.029 181.37 187.316 181.378C186.972 181.382 186.63 181.316 186.313 181.182C185.995 181.049 185.709 180.853 185.47 180.604C185.232 180.356 185.047 180.061 184.927 179.739C184.807 179.416 184.755 179.072 184.773 178.729C184.811 178.016 185.12 177.344 185.637 176.852C186.154 176.359 186.84 176.083 187.554 176.08C187.898 176.077 188.239 176.144 188.556 176.278C188.873 176.411 189.159 176.608 189.397 176.856C189.635 177.104 189.82 177.398 189.94 177.72C190.061 178.042 190.114 178.385 190.098 178.729Z" fill="rgb(38,50,56)" fill-rule="nonzero" />
			<path id="Vector" d="M202.001 178.729C201.961 179.441 201.651 180.111 201.134 180.603C200.618 181.095 199.933 181.372 199.22 181.378C198.876 181.381 198.536 181.313 198.219 181.18C197.903 181.046 197.617 180.849 197.38 180.601C197.143 180.353 196.958 180.059 196.839 179.737C196.719 179.415 196.667 179.072 196.685 178.729C196.723 178.017 197.032 177.347 197.547 176.855C198.062 176.362 198.746 176.085 199.458 176.08C199.802 176.075 200.144 176.142 200.461 176.275C200.778 176.408 201.065 176.605 201.304 176.853C201.542 177.101 201.727 177.396 201.847 177.719C201.967 178.041 202.019 178.385 202.001 178.729Z" fill="rgb(38,50,56)" fill-rule="nonzero" />
			<path id="Vector" d="M213.914 178.729C213.873 179.441 213.563 180.111 213.047 180.603C212.53 181.095 211.846 181.372 211.132 181.378C210.788 181.381 210.448 181.313 210.131 181.18C209.814 181.046 209.528 180.85 209.29 180.601C209.051 180.353 208.867 180.059 208.746 179.737C208.626 179.415 208.572 179.072 208.589 178.729C208.629 178.016 208.939 177.346 209.456 176.854C209.973 176.362 210.657 176.085 211.371 176.08C211.715 176.075 212.056 176.142 212.374 176.275C212.691 176.408 212.978 176.605 213.216 176.853C213.455 177.101 213.639 177.396 213.759 177.719C213.879 178.041 213.932 178.385 213.914 178.729Z" fill="rgb(38,50,56)" fill-rule="nonzero" />
			<path id="Vector" d="M188.093 223.536C188.051 224.247 187.74 224.916 187.224 225.408C186.708 225.899 186.024 226.177 185.311 226.185C184.968 226.188 184.627 226.12 184.31 225.987C183.993 225.853 183.707 225.656 183.469 225.408C183.231 225.16 183.046 224.866 182.925 224.544C182.805 224.222 182.751 223.879 182.768 223.536C182.808 222.823 183.118 222.153 183.635 221.661C184.152 221.169 184.836 220.892 185.55 220.886C185.894 220.883 186.234 220.951 186.551 221.084C186.868 221.218 187.154 221.415 187.392 221.663C187.63 221.911 187.815 222.205 187.936 222.527C188.056 222.849 188.11 223.192 188.093 223.536Z" fill="rgb(38,50,56)" fill-rule="nonzero" />
			<path id="Vector" d="M199.997 223.536C199.956 224.246 199.648 224.915 199.133 225.407C198.618 225.899 197.936 226.177 197.224 226.185C196.88 226.189 196.538 226.122 196.221 225.989C195.904 225.856 195.617 225.659 195.378 225.411C195.14 225.163 194.955 224.868 194.835 224.546C194.715 224.223 194.663 223.879 194.681 223.536C194.721 222.823 195.031 222.153 195.548 221.661C196.064 221.169 196.749 220.892 197.462 220.886C197.806 220.883 198.146 220.951 198.463 221.084C198.779 221.218 199.065 221.415 199.302 221.663C199.539 221.911 199.724 222.206 199.843 222.528C199.963 222.85 200.015 223.193 199.997 223.536Z" fill="rgb(38,50,56)" fill-rule="nonzero" />
			<path id="Vector" d="M211.936 223.535C211.895 224.248 211.585 224.918 211.069 225.41C210.552 225.902 209.868 226.179 209.154 226.185C208.811 226.186 208.47 226.118 208.154 225.984C207.838 225.85 207.552 225.653 207.314 225.405C207.077 225.158 206.892 224.864 206.771 224.543C206.65 224.221 206.595 223.879 206.611 223.535C206.653 222.824 206.964 222.155 207.48 221.663C207.996 221.172 208.68 220.894 209.393 220.886C209.737 220.882 210.078 220.949 210.395 221.082C210.713 221.215 211 221.412 211.238 221.66C211.476 221.908 211.661 222.203 211.781 222.525C211.901 222.848 211.954 223.192 211.936 223.535Z" fill="rgb(38,50,56)" fill-rule="nonzero" />
			<path id="Vector" d="M223.822 223.536C223.779 224.247 223.469 224.916 222.953 225.408C222.436 225.899 221.753 226.177 221.04 226.185C220.697 226.186 220.357 226.118 220.04 225.984C219.724 225.85 219.438 225.653 219.201 225.405C218.963 225.158 218.778 224.864 218.657 224.543C218.536 224.221 218.481 223.879 218.497 223.536C218.539 222.824 218.85 222.155 219.366 221.663C219.882 221.172 220.566 220.894 221.279 220.886C221.622 220.883 221.963 220.951 222.28 221.084C222.597 221.218 222.883 221.415 223.121 221.663C223.359 221.911 223.544 222.205 223.665 222.527C223.785 222.849 223.839 223.192 223.822 223.536Z" fill="rgb(38,50,56)" fill-rule="nonzero" />
			<path id="Vector" d="M235.779 223.536C235.736 224.247 235.426 224.916 234.909 225.408C234.393 225.899 233.71 226.177 232.997 226.185C232.653 226.189 232.311 226.122 231.994 225.989C231.677 225.856 231.39 225.659 231.151 225.411C230.913 225.163 230.728 224.868 230.608 224.546C230.488 224.223 230.436 223.879 230.454 223.536C230.494 222.823 230.804 222.153 231.321 221.661C231.837 221.169 232.522 220.892 233.235 220.886C233.579 220.883 233.92 220.951 234.237 221.084C234.554 221.218 234.84 221.415 235.078 221.663C235.316 221.911 235.501 222.205 235.621 222.527C235.742 222.849 235.795 223.192 235.779 223.536Z" fill="rgb(38,50,56)" fill-rule="nonzero" />
			<path id="Vector" d="M9.36049 17.8909C14.5301 17.8909 18.721 13.8859 18.721 8.94545C18.721 4.00501 14.5301 0 9.36049 0C4.19083 0 0 4.00501 0 8.94545C0 13.8859 4.19083 17.8909 9.36049 17.8909Z" fill="rgb(76,175,79)" fill-rule="evenodd" transform="matrix(0.714961,-0.699164,0.699164,0.714961,214.77,109.374)" />
			<path id="Vector" d="M245.086 130.09C242.886 132.972 240.054 135.312 236.809 136.93C233.564 138.548 229.991 139.401 226.365 139.424C222.849 139.453 219.379 138.618 216.262 136.99C213.145 135.362 210.477 132.992 208.492 130.09C212.784 125.816 219.574 123.025 227.098 123.025C234.622 123.025 241.174 125.816 245.086 130.09Z" fill="rgb(76,175,79)" fill-rule="nonzero" />
			<path id="Vector" d="M9.36049 17.8909C14.5301 17.8909 18.721 13.8859 18.721 8.94545C18.721 4.00501 14.5301 0 9.36049 0C4.19083 0 0 4.00501 0 8.94545C0 13.8859 4.19083 17.8909 9.36049 17.8909Z" opacity="0.100000001" fill="rgb(255,255,255)" fill-rule="evenodd" transform="matrix(0.714961,-0.699164,0.699164,0.714961,214.77,109.374)" />
			<path id="Vector" d="M245.086 130.09C242.886 132.972 240.054 135.312 236.809 136.93C233.564 138.548 229.991 139.401 226.365 139.424C222.849 139.453 219.379 138.618 216.262 136.99C213.145 135.362 210.477 132.992 208.492 130.09C212.784 125.816 219.574 123.025 227.098 123.025C234.622 123.025 241.174 125.816 245.086 130.09Z" opacity="0.100000001" fill="rgb(255,255,255)" fill-rule="nonzero" />
		</g>
		<g id="character-1">
			<path id="Vector" d="M115.161 191.03C114.322 192.867 113.439 194.889 112.67 196.849C111.902 198.81 111.116 200.832 110.436 202.845C109.048 206.813 107.99 210.889 107.275 215.032L107.081 216.33C107.062 216.552 107.083 216.777 107.142 216.992C107.351 217.724 107.679 218.416 108.114 219.041C109.248 220.657 110.563 222.139 112.035 223.456C113.586 224.899 115.213 226.258 116.909 227.527C118.605 228.834 120.388 230.105 122.146 231.306L120.494 234.406C116.298 232.578 112.315 230.295 108.617 227.598C106.644 226.159 104.863 224.473 103.319 222.582C102.403 221.456 101.689 220.18 101.208 218.811C100.929 217.956 100.786 217.062 100.784 216.162C100.784 215.95 100.784 215.641 100.784 215.491L100.784 215.058L100.873 214.175C101.379 209.574 102.346 205.036 103.76 200.629C104.449 198.456 105.182 196.293 106.021 194.182C106.86 192.072 107.725 190.005 108.794 187.86L115.161 191.03Z" fill="rgb(229,138,123)" fill-rule="nonzero" />
			<path id="Vector" d="M120.901 230.759L127.144 227.598L125.528 234.45C125.528 234.45 121.245 235.651 119.258 233.567L120.901 230.759Z" fill="rgb(229,138,123)" fill-rule="nonzero" />
			<path id="Vector" d="M132.857 228.719L131.197 234.388L125.528 234.45L127.144 227.598L132.857 228.719Z" fill="rgb(229,138,123)" fill-rule="nonzero" />
			<path id="Vector" d="M141.67 157.968C142.004 159.192 142.469 160.376 143.057 161.5C142.885 161.695 142.664 161.84 142.417 161.919C142.169 161.998 141.905 162.009 141.653 161.951L141.67 157.968Z" fill="rgb(223,87,83)" fill-rule="nonzero" />
			<path id="Vector" d="M141.485 158.021C141.851 158.021 142.147 157.566 142.147 157.005C142.147 156.444 141.851 155.99 141.485 155.99C141.119 155.99 140.823 156.444 140.823 157.005C140.823 157.566 141.119 158.021 141.485 158.021Z" fill="rgb(38,50,56)" fill-rule="evenodd" />
			<path id="Vector" d="M141.291 156.025L142.633 155.645C142.633 155.645 141.979 156.687 141.291 156.025Z" fill="rgb(38,50,56)" fill-rule="nonzero" />
			<path id="Vector" d="M124.424 164.45C125.228 168.556 126.031 176.088 123.152 178.835C123.152 178.835 124.283 183.003 131.921 183.003C140.319 183.003 135.93 178.835 135.93 178.835C131.347 177.74 131.462 174.34 132.266 171.143L124.424 164.45Z" fill="rgb(229,138,123)" fill-rule="nonzero" />
			<path id="Vector" d="M122.19 155.089C122.614 161.951 122.649 164.865 126.111 168.388C131.33 173.686 139.666 171.673 141.299 164.856C142.774 158.674 141.838 148.501 135.118 145.773C133.643 145.165 132.037 144.944 130.453 145.13C128.868 145.316 127.357 145.903 126.063 146.836C124.769 147.768 123.734 149.016 123.056 150.46C122.378 151.904 122.08 153.498 122.19 155.089Z" fill="rgb(229,138,123)" fill-rule="nonzero" />
			<path id="Vector" d="M122.87 147.371C119.426 148.625 114.834 147.689 116.635 158.312C118.543 169.563 115.611 173.263 115.611 173.263C115.611 173.263 128.672 176.044 142.006 173.095C142.006 173.095 137.935 165.977 139.074 160.732C140.531 154.109 139.383 151.663 139.383 151.663C139.383 151.663 127.709 145.605 122.87 147.371Z" fill="rgb(38,50,56)" fill-rule="nonzero" />
			<path id="Vector" d="M137.44 158.666C137.444 159.97 137.818 161.247 138.518 162.348C139.454 163.779 140.558 163.231 140.831 161.712C141.079 160.379 140.893 158.021 139.701 157.103C138.509 156.184 137.458 157.085 137.44 158.666Z" fill="rgb(229,138,123)" fill-rule="nonzero" />
			<path id="Vector" d="M119.876 148.528C118.887 145.746 123.603 141.463 133.581 143.23C143.56 144.996 143.993 153.305 143.993 153.305L141.979 150.903L142.068 153.429L131.815 155.398L119.876 148.528Z" fill="rgb(38,50,56)" fill-rule="nonzero" />
			<path id="Vector" d="M120.724 179.303C120.665 178.9 120.766 178.489 121.005 178.159C121.244 177.829 121.603 177.606 122.004 177.537C125.113 177.024 132.177 175.982 135.727 176.477C138.376 176.848 139.065 178.384 139.18 179.647C139.198 179.868 139.168 180.091 139.093 180.299C139.018 180.508 138.899 180.698 138.744 180.857C138.59 181.016 138.403 181.14 138.196 181.221C137.989 181.302 137.768 181.337 137.546 181.325L122.199 180.636C121.837 180.618 121.492 180.475 121.224 180.232C120.955 179.989 120.778 179.661 120.724 179.303Z" fill="rgb(76,175,79)" fill-rule="nonzero" />
			<path id="Vector" d="M120.724 179.303C120.665 178.9 120.766 178.489 121.005 178.159C121.244 177.829 121.603 177.606 122.004 177.537C125.113 177.024 132.177 175.982 135.727 176.477C138.376 176.848 139.065 178.384 139.18 179.647C139.198 179.868 139.168 180.091 139.093 180.299C139.018 180.508 138.899 180.698 138.744 180.857C138.59 181.016 138.403 181.14 138.196 181.221C137.989 181.302 137.768 181.337 137.546 181.325L122.199 180.636C121.837 180.618 121.492 180.475 121.224 180.232C120.955 179.989 120.778 179.661 120.724 179.303Z" opacity="0.600000024" fill="rgb(0,0,0)" fill-rule="nonzero" />
			<path id="Vector" d="M129.599 333.574L135.295 337.53L144.823 324.611L139.127 320.664L129.599 333.574Z" fill="rgb(229,138,123)" fill-rule="nonzero" />
			<path id="Vector" d="M116.317 333.318L122.331 336.745L130.764 323.084L124.751 319.657L116.317 333.318Z" fill="rgb(229,138,123)" fill-rule="nonzero" />
			<path id="Vector" d="M144.814 324.611L139.904 331.27L134.208 327.322L139.118 320.664L144.814 324.611Z" fill="rgb(207,111,100)" fill-rule="nonzero" />
			<path id="Vector" d="M124.742 319.657L130.764 323.092L126.42 330.13L120.397 326.695L124.742 319.657Z" fill="rgb(207,111,100)" fill-rule="nonzero" />
			<path id="Vector" d="M134.403 222.432C134.403 222.432 156.638 250.451 152.461 277.252C149.097 298.896 129.581 328.205 129.581 328.205L120.406 323.649C126.873 310.69 132.392 297.279 136.919 283.522C138.315 279.251 138.723 274.719 138.111 270.267C137.499 265.815 135.884 261.561 133.387 257.825C122.119 241.373 104.069 251.167 116.211 222.432L134.403 222.432Z" fill="rgb(76,175,79)" fill-rule="nonzero" />
			<path id="Vector" d="M134.403 222.432C134.403 222.432 156.638 250.451 152.461 277.252C149.097 298.896 129.581 328.205 129.581 328.205L120.406 323.649C126.873 310.69 132.392 297.279 136.919 283.522C138.315 279.251 138.723 274.719 138.111 270.267C137.499 265.815 135.884 261.561 133.387 257.825C122.119 241.373 104.069 251.167 116.211 222.432L134.403 222.432Z" opacity="0.600000024" fill="rgb(0,0,0)" fill-rule="nonzero" />
			<path id="Vector" d="M145.308 240.429L142.076 237.214C142.076 237.47 148.337 276.122 150.095 286.984C151.132 283.811 151.926 280.564 152.47 277.27C154.536 264.121 150.218 250.69 145.308 240.429Z" opacity="0.400000006" fill="rgb(0,0,0)" fill-rule="nonzero" />
			<path id="Vector" d="M144.328 222.432C144.328 222.432 171.103 257.648 171.862 278.762C172.489 296.424 142.721 330.643 142.721 330.643L134.067 325.044C134.067 325.044 151.49 300.742 155.879 280.891C154.183 261.216 118.331 222.432 118.331 222.432L144.328 222.432Z" fill="rgb(76,175,79)" fill-rule="nonzero" />
			<path id="Vector" d="M144.328 222.432C144.328 222.432 171.103 257.648 171.862 278.762C172.489 296.424 142.721 330.643 142.721 330.643L134.067 325.044C134.067 325.044 151.49 300.742 155.879 280.891C154.183 261.216 118.331 222.432 118.331 222.432L144.328 222.432Z" opacity="0.600000024" fill="rgb(0,0,0)" fill-rule="nonzero" />
			<path id="Vector" d="M111.204 180.407C108.343 181.087 105.597 191.489 105.597 191.489L116.785 198.96C116.785 198.96 120.512 190.73 119.205 187.127C117.854 183.374 114.799 179.55 111.204 180.407Z" fill="rgb(76,175,79)" fill-rule="nonzero" />
			<path id="Vector" d="M113.394 187.109L112.617 196.178L116.777 198.969C117.925 196.383 118.775 193.675 119.311 190.897L113.394 187.109Z" opacity="0.200000003" fill="rgb(0,0,0)" fill-rule="nonzero" />
			<path id="Vector" d="M147.64 180.61C147.64 180.61 150.942 181.766 144.328 222.423L116.194 222.423C116.671 210.943 116.679 203.878 111.204 180.407C115.144 179.595 119.137 179.069 123.152 178.835C127.406 178.53 131.676 178.53 135.93 178.835C141.423 179.338 147.64 180.61 147.64 180.61Z" fill="rgb(76,175,79)" fill-rule="nonzero" />
			<path id="Vector" d="M150.501 187.109C151.137 188.875 151.808 190.774 152.514 192.602C153.221 194.43 153.892 196.311 154.607 198.165L156.771 203.711L157.318 205.097L157.601 205.786L157.733 206.13C157.733 206.192 157.733 206.192 157.733 206.183C157.572 205.956 157.36 205.768 157.115 205.636C156.766 205.43 156.372 205.312 155.967 205.291C155.631 205.281 155.296 205.344 154.987 205.477C154.581 205.662 154.581 205.742 154.589 205.733C154.663 205.674 154.728 205.606 154.784 205.53C155.273 204.888 155.696 204.199 156.047 203.472C156.462 202.66 156.859 201.794 157.256 200.92C158.033 199.154 158.749 197.326 159.464 195.48C160.179 193.635 160.859 191.772 161.522 189.891L163.535 184.257L166.935 185.14C166.264 189.167 165.398 193.087 164.356 197.079C163.853 199.066 163.261 201.035 162.59 203.022C162.254 204.02 161.884 205.009 161.46 206.024C161.018 207.126 160.474 208.185 159.835 209.186C159.6 209.523 159.34 209.841 159.058 210.139C158.607 210.626 158.06 211.014 157.451 211.279C156.91 211.51 156.325 211.619 155.737 211.596C155.079 211.572 154.438 211.38 153.874 211.04C153.209 210.625 152.657 210.052 152.267 209.371C152.135 209.142 152.02 208.912 151.94 208.744L151.772 208.409L151.437 207.72L150.766 206.351C149.883 204.514 149 202.66 148.231 200.797C147.463 198.933 146.651 197.044 145.891 195.145C145.132 193.246 144.452 191.348 143.807 189.299L150.501 187.109Z" fill="rgb(229,138,123)" fill-rule="nonzero" />
			<path id="Vector" d="M147.64 180.61C151.022 181.413 154.828 191.41 154.828 191.41L144.77 199.966C144.77 199.966 138.262 189.069 139.577 185.475C140.946 181.731 143.224 179.559 147.64 180.61Z" fill="rgb(76,175,79)" fill-rule="nonzero" />
			<path id="Vector" d="M165.133 181.095L168.666 178.146L171.121 181.97L169.31 185.158C169.31 185.158 166.431 187.807 163.888 186.456C163.485 185.548 163.388 184.534 163.612 183.567C163.837 182.6 164.371 181.732 165.133 181.095Z" fill="rgb(229,138,123)" fill-rule="nonzero" />
			<path id="Vector" d="M175.041 178.155L174.776 179.117L169.187 180.053L168.639 178.146L175.041 178.155Z" fill="rgb(229,138,123)" fill-rule="nonzero" />
			<path id="Vector" d="M143.41 331.093L133.325 324.576L135.136 321.432L146.465 328.4L143.41 331.093Z" fill="rgb(76,175,79)" fill-rule="nonzero" />
			<path id="Vector" d="M126.278 336.285C125.394 336.177 124.543 335.876 123.788 335.402C123.757 335.391 123.73 335.371 123.711 335.344C123.692 335.317 123.681 335.285 123.681 335.252C123.681 335.219 123.692 335.187 123.711 335.16C123.73 335.133 123.757 335.113 123.788 335.102C124.062 335.014 126.437 334.281 127.126 334.846C127.204 334.91 127.262 334.994 127.297 335.089C127.331 335.184 127.339 335.286 127.32 335.385C127.308 335.544 127.255 335.697 127.167 335.83C127.079 335.963 126.959 336.071 126.817 336.144C126.652 336.234 126.467 336.283 126.278 336.285ZM124.292 335.314C125.395 335.879 126.278 336.082 126.702 335.87C126.795 335.819 126.872 335.745 126.928 335.656C126.984 335.566 127.015 335.464 127.02 335.358C127.02 335.217 127.02 335.155 126.941 335.12C126.57 334.819 125.245 335.049 124.274 335.314L124.292 335.314Z" fill="rgb(38,50,56)" fill-rule="nonzero" />
			<path id="Vector" d="M123.85 335.464C123.803 335.463 123.759 335.444 123.726 335.411C123.713 335.387 123.706 335.359 123.706 335.332C123.706 335.304 123.713 335.277 123.726 335.252C123.726 335.173 124.3 333.256 125.201 332.824C125.316 332.771 125.441 332.744 125.568 332.744C125.694 332.744 125.819 332.771 125.934 332.824C126.058 332.863 126.165 332.942 126.239 333.05C126.313 333.157 126.348 333.286 126.34 333.415C126.278 334.21 124.662 335.305 123.921 335.491L123.85 335.464ZM125.563 333.053C125.477 333.056 125.393 333.077 125.316 333.115C124.768 333.38 124.318 334.413 124.097 335.04C124.874 334.714 125.943 333.848 125.978 333.362C125.978 333.283 125.978 333.186 125.775 333.098C125.709 333.062 125.637 333.038 125.563 333.027L125.563 333.053Z" fill="rgb(38,50,56)" fill-rule="nonzero" />
			<path id="Vector" d="M138.88 340.1C137.882 340.1 136.495 338.82 135.736 338.034C135.717 338.007 135.706 337.974 135.706 337.941C135.706 337.908 135.717 337.875 135.736 337.848C135.753 337.82 135.778 337.797 135.808 337.781C135.837 337.766 135.87 337.758 135.904 337.76C136.257 337.76 139.321 338.219 139.754 339.085C139.8 339.162 139.824 339.251 139.824 339.341C139.824 339.431 139.8 339.519 139.754 339.597C139.689 339.732 139.591 339.848 139.469 339.934C139.347 340.021 139.205 340.075 139.056 340.091L138.88 340.1ZM136.319 338.157C137.432 339.235 138.412 339.835 138.968 339.765C139.065 339.752 139.158 339.715 139.238 339.658C139.318 339.601 139.383 339.526 139.427 339.438C139.447 339.408 139.458 339.372 139.458 339.336C139.458 339.3 139.447 339.265 139.427 339.235C139.198 338.758 137.564 338.352 136.319 338.157Z" fill="rgb(38,50,56)" fill-rule="nonzero" />
			<path id="Vector" d="M136.416 338.113C136.218 338.119 136.02 338.104 135.824 338.069C135.797 338.065 135.771 338.054 135.75 338.037C135.728 338.02 135.711 337.997 135.701 337.972C135.688 337.946 135.681 337.917 135.681 337.888C135.681 337.859 135.688 337.83 135.701 337.804C135.754 337.742 136.946 336.303 138.076 336.206C138.396 336.181 138.713 336.282 138.959 336.488C139.304 336.789 139.286 337.054 139.198 337.221C138.977 337.822 137.449 338.113 136.416 338.113ZM136.186 337.787C137.175 337.84 138.756 337.513 138.959 337.08C138.959 337.08 139.03 336.939 138.8 336.745C138.709 336.665 138.602 336.605 138.487 336.569C138.371 336.532 138.25 336.52 138.129 336.533C137.368 336.745 136.69 337.186 136.186 337.795L136.186 337.787Z" fill="rgb(38,50,56)" fill-rule="nonzero" />
			<path id="Vector" d="M124.088 334.51L116.6 332.391C116.471 332.352 116.332 332.362 116.21 332.419C116.087 332.476 115.991 332.576 115.938 332.7L113.412 338.378C113.353 338.524 113.325 338.68 113.33 338.837C113.336 338.994 113.374 339.148 113.444 339.289C113.513 339.43 113.611 339.555 113.732 339.655C113.853 339.755 113.994 339.829 114.145 339.871C116.794 340.559 118.066 340.754 121.36 341.699C123.391 342.264 126.287 343.315 129.087 344.109C131.886 344.904 132.822 342.175 131.736 341.593C126.826 338.996 126.437 337.177 125.095 335.235C124.855 334.883 124.498 334.626 124.088 334.51Z" fill="rgb(76,175,79)" fill-rule="nonzero" />
			<path id="Vector" d="M135.939 337.001L129.546 332.585C129.437 332.506 129.304 332.47 129.17 332.483C129.037 332.496 128.913 332.558 128.822 332.656L124.583 337.213C124.48 337.33 124.403 337.469 124.357 337.619C124.311 337.768 124.298 337.926 124.318 338.082C124.338 338.237 124.391 338.386 124.473 338.52C124.555 338.653 124.665 338.767 124.795 338.855C127.047 340.365 128.212 340.974 131.029 342.926C132.795 344.127 136.213 346.794 138.597 348.454C140.981 350.114 142.756 347.836 141.909 346.935C138.111 342.882 137.281 340.339 136.654 338.034C136.546 337.616 136.292 337.25 135.939 337.001Z" fill="rgb(76,175,79)" fill-rule="nonzero" />
			<path id="Vector" d="M130.756 328.788L119.232 323.057L120.424 319.931L132.734 325.971L130.756 328.788Z" fill="rgb(76,175,79)" fill-rule="nonzero" />
			<path id="Vector" d="M115.77 220.772L114.799 223.315C114.701 223.509 114.931 223.712 115.258 223.712L144.47 223.712C144.726 223.712 144.938 223.589 144.955 223.43L145.202 220.904C145.202 220.736 144.999 220.586 144.726 220.586L116.229 220.586C116.143 220.578 116.057 220.591 115.977 220.623C115.897 220.655 115.826 220.706 115.77 220.772Z" fill="rgb(76,175,79)" fill-rule="nonzero" />
			<path id="Vector" d="M115.77 220.772L114.799 223.315C114.701 223.509 114.931 223.712 115.258 223.712L144.47 223.712C144.726 223.712 144.938 223.589 144.955 223.43L145.202 220.904C145.202 220.736 144.999 220.586 144.726 220.586L116.229 220.586C116.143 220.578 116.057 220.591 115.977 220.623C115.897 220.655 115.826 220.706 115.77 220.772Z" opacity="0.400000006" fill="rgb(255,255,255)" fill-rule="nonzero" />
			<path id="Vector" d="M120.371 223.959L119.602 223.959C119.452 223.959 119.337 223.88 119.346 223.783L119.708 220.507C119.708 220.418 119.85 220.339 120 220.339L120.768 220.339C120.918 220.339 121.033 220.418 121.024 220.507L120.662 223.783C120.653 223.88 120.521 223.959 120.371 223.959Z" fill="rgb(76,175,79)" fill-rule="nonzero" />
			<path id="Vector" d="M138.385 223.959L137.626 223.959C137.476 223.959 137.361 223.88 137.37 223.783L137.723 220.507C137.723 220.418 137.873 220.339 138.023 220.339L138.783 220.339C138.933 220.339 139.056 220.418 139.039 220.507L138.686 223.783C138.641 223.88 138.544 223.959 138.385 223.959Z" fill="rgb(76,175,79)" fill-rule="nonzero" />
			<g style="mix-blend-mode:multiply">
				<path id="Vector" d="M119.7 373.507C132.765 373.507 143.357 372.74 143.357 371.793C143.357 370.847 132.765 370.08 119.7 370.08C106.634 370.08 96.0422 370.847 96.0422 371.793C96.0422 372.74 106.634 373.507 119.7 373.507Z" fill="rgb(245,245,245)" fill-rule="evenodd" />
			</g>
			<path id="Vector" d="M134.111 369.374C129.925 368.155 125.281 366.592 122.472 364.958C122.393 364.905 122.305 364.879 122.225 364.835L122.225 345.884L130.694 345.884C131.337 345.846 131.941 345.564 132.382 345.095C132.824 344.627 133.07 344.007 133.07 343.363C133.07 342.719 132.824 342.099 132.382 341.631C131.941 341.162 131.337 340.88 130.694 340.842L122.269 340.842L122.269 254.46L117.183 254.46L117.183 340.842L108.767 340.842C108.424 340.822 108.079 340.872 107.756 340.989C107.432 341.107 107.136 341.289 106.886 341.525C106.635 341.761 106.436 342.046 106.299 342.362C106.163 342.678 106.092 343.019 106.092 343.363C106.092 343.707 106.163 344.048 106.299 344.364C106.436 344.68 106.635 344.965 106.886 345.201C107.136 345.437 107.432 345.62 107.756 345.737C108.079 345.854 108.424 345.905 108.767 345.884L117.183 345.884L117.183 364.808C117.103 364.808 117.024 364.879 116.944 364.932C114.092 366.592 109.482 368.155 105.297 369.347C105.014 369.433 104.771 369.617 104.612 369.866C104.453 370.115 104.389 370.412 104.431 370.705C104.472 370.997 104.617 371.265 104.839 371.46C105.061 371.655 105.346 371.764 105.641 371.767L133.767 371.767C134.049 371.748 134.316 371.632 134.524 371.44C134.731 371.247 134.866 370.99 134.906 370.71C134.947 370.43 134.89 370.144 134.745 369.901C134.6 369.658 134.377 369.472 134.111 369.374Z" fill="rgb(224,224,224)" fill-rule="nonzero" />
			<path id="Vector" d="M135.409 245.665L104.008 245.665C101.481 245.665 99.4332 247.713 99.4332 250.239L99.4332 259.573C99.4332 262.1 101.481 264.148 104.008 264.148L135.409 264.148C137.936 264.148 139.984 262.1 139.984 259.573L139.984 250.239C139.984 247.713 137.936 245.665 135.409 245.665Z" fill="rgb(76,175,79)" fill-rule="evenodd" />
			<path id="Vector" d="M103.716 264.156L103.716 265.764C103.716 267.088 105.155 268.166 106.922 268.166L132.531 268.166C134.297 268.166 135.736 267.088 135.736 265.764L135.736 264.156L103.716 264.156Z" fill="rgb(76,175,79)" fill-rule="nonzero" />
			<path id="Vector" d="M103.716 264.156L103.716 265.764C103.716 267.088 105.155 268.166 106.922 268.166L132.531 268.166C134.297 268.166 135.736 267.088 135.736 265.764L135.736 264.156L103.716 264.156Z" opacity="0.300000012" fill="rgb(255,255,255)" fill-rule="nonzero" />
		</g>
	</g>
</svg>
