<svg viewBox="0 0 48 48" xmlns="http://www.w3.org/2000/svg" xmlns:xlink="http://www.w3.org/1999/xlink" width="48.000000" height="48.000000" fill="none">
	<rect id="Icon" width="48.000000" height="48.000000" x="0.000000" y="0.000000" />
	<path id="Vector" d="M24.225 29.4187C26.1085 27.8342 27.4592 25.7088 28.094 23.3307C28.7288 20.9527 28.617 18.4369 27.7737 16.1245C26.9304 13.8121 25.3965 11.815 23.3798 10.4039C21.3631 8.99271 18.9613 8.23584 16.5 8.23584C14.0386 8.23584 11.6368 8.99271 9.62016 10.4039C7.60349 11.815 6.06954 13.8121 5.22625 16.1245C4.38297 18.4369 4.27115 20.9527 4.90595 23.3307C5.54075 25.7088 6.89147 27.8342 8.77498 29.4187C5.72031 30.801 3.09171 32.9764 1.16248 35.7187C0.82008 36.2062 0.685035 36.8097 0.78697 37.3967C0.888905 37.9837 1.2195 38.5063 1.70623 38.8499C2.08358 39.1196 2.53616 39.2639 2.99998 39.2624C3.36075 39.2635 3.7164 39.177 4.03643 39.0105C4.35646 38.8439 4.63133 38.6022 4.83748 38.3062C6.15208 36.4338 7.89816 34.9055 9.92811 33.8504C11.9581 32.7953 14.2122 32.2445 16.5 32.2445C18.7878 32.2445 21.0419 32.7953 23.0719 33.8504C25.1018 34.9055 26.8479 36.4338 28.1625 38.3062C28.3255 38.5638 28.5391 38.7855 28.7904 38.9581C29.0417 39.1306 29.3254 39.2502 29.6243 39.3098C29.9233 39.3693 30.2312 39.3675 30.5294 39.3044C30.8276 39.2414 31.1099 39.1183 31.3592 38.9429C31.6084 38.7674 31.8194 38.5431 31.9793 38.2836C32.1392 38.0241 32.2448 37.7348 32.2895 37.4333C32.3342 37.1318 32.3172 36.8243 32.2395 36.5296C32.1618 36.2348 32.025 35.959 31.8375 35.7187C29.9083 32.9764 27.2797 30.801 24.225 29.4187ZM8.99998 20.2499C8.99998 18.7666 9.43985 17.3165 10.264 16.0831C11.0881 14.8498 12.2594 13.8885 13.6299 13.3208C15.0003 12.7532 16.5083 12.6046 17.9632 12.894C19.418 13.1834 20.7544 13.8977 21.8033 14.9466C22.8522 15.9955 23.5665 17.3319 23.8559 18.7867C24.1453 20.2416 23.9967 21.7496 23.4291 23.12C22.8614 24.4905 21.9001 25.6618 20.6668 26.4859C19.4334 27.3101 17.9833 27.7499 16.5 27.7499C14.5109 27.7499 12.6032 26.9597 11.1967 25.5532C9.79016 24.1467 8.99998 22.239 8.99998 20.2499ZM46.575 38.8499C46.1976 39.1196 45.7451 39.2639 45.2812 39.2624C44.921 39.2603 44.5665 39.1725 44.247 39.0062C43.9275 38.84 43.6521 38.6 43.4437 38.3062C42.1263 36.4371 40.3795 34.9115 38.3501 33.8576C36.3207 32.8038 34.068 32.2524 31.7812 32.2499C31.1845 32.2499 30.6122 32.0129 30.1902 31.5909C29.7683 31.169 29.5312 30.5967 29.5312 29.9999C29.5312 29.4032 29.7683 28.8309 30.1902 28.4089C30.6122 27.987 31.1845 27.7499 31.7812 27.7499C33.7704 27.7499 35.678 26.9597 37.0845 25.5532C38.4911 24.1467 39.2812 22.239 39.2812 20.2499C39.2812 18.2608 38.4911 16.3531 37.0845 14.9466C35.678 13.5401 33.7704 12.7499 31.7812 12.7499C31.0964 12.7486 30.4148 12.8433 29.7562 13.0312C29.4703 13.1165 29.1702 13.144 28.8734 13.1122C28.5767 13.0805 28.2893 12.99 28.0279 12.846C27.7664 12.7021 27.5363 12.5076 27.3507 12.2738C27.1652 12.0401 27.028 11.7718 26.9472 11.4845C26.8664 11.1972 26.8435 10.8967 26.8799 10.6005C26.9163 10.3044 27.0113 10.0184 27.1593 9.75921C27.3073 9.50007 27.5053 9.27296 27.742 9.0911C27.9786 8.90924 28.249 8.77627 28.5375 8.69992C29.5925 8.39956 30.6843 8.2481 31.7812 8.24992C34.2442 8.24277 36.6496 8.99486 38.6698 10.4038C40.69 11.8127 42.2269 13.8101 43.0713 16.1238C43.9156 18.4376 44.0264 20.9553 43.3884 23.3343C42.7505 25.7132 41.3949 27.8378 39.5062 29.4187C42.5609 30.801 45.1895 32.9764 47.1187 35.7187C47.2907 35.9592 47.4132 36.2316 47.479 36.5199C47.5447 36.8082 47.5526 37.1067 47.502 37.3981C47.4514 37.6894 47.3434 37.9678 47.1842 38.2171C47.0251 38.4663 46.818 38.6814 46.575 38.8499Z" fill="rgb(76,175,79)" fill-rule="nonzero" />
	<path id="Vector" d="M25.0204 28.6859C26.4901 27.204 27.5525 25.3593 28.094 23.3307C28.7288 20.9527 28.617 18.4369 27.7737 16.1245C26.9304 13.8121 25.3965 11.815 23.3798 10.4039C21.3631 8.99271 18.9613 8.23584 16.5 8.23584C14.0386 8.23584 11.6368 8.99271 9.62016 10.4039C7.60349 11.815 6.06954 13.8121 5.22625 16.1245C4.38297 18.4369 4.27115 20.9527 4.90595 23.3307C5.44745 25.3593 6.50988 27.204 7.97959 28.6859C8.23282 28.9412 8.49815 29.1858 8.77498 29.4187C8.44455 29.5682 8.1191 29.727 7.79898 29.8948C5.1598 31.2783 2.88302 33.2731 1.16248 35.7187C0.82008 36.2062 0.685035 36.8097 0.78697 37.3967C0.888905 37.9837 1.2195 38.5063 1.70623 38.8499C2.08358 39.1196 2.53616 39.2639 2.99998 39.2624C3.36075 39.2635 3.7164 39.177 4.03643 39.0105C4.35646 38.8439 4.63133 38.6022 4.83748 38.3062C6.15208 36.4338 7.89816 34.9055 9.92811 33.8504C11.9581 32.7953 14.2122 32.2445 16.5 32.2445C18.7878 32.2445 21.0419 32.7953 23.0719 33.8504C25.1018 34.9055 26.8479 36.4338 28.1625 38.3062C28.3255 38.5638 28.5391 38.7855 28.7904 38.9581C29.0417 39.1306 29.3254 39.2502 29.6243 39.3098C29.9233 39.3693 30.2312 39.3675 30.5294 39.3044C30.8276 39.2414 31.1099 39.1183 31.3592 38.9429C31.6084 38.7674 31.8194 38.5431 31.9793 38.2836C32.1392 38.0241 32.2448 37.7348 32.2895 37.4333C32.3342 37.1318 32.3172 36.8243 32.2395 36.5296C32.1618 36.2348 32.025 35.959 31.8375 35.7187C30.117 33.2731 27.8402 31.2783 25.201 29.8948C24.8809 29.727 24.5554 29.5682 24.225 29.4187C24.5018 29.1858 24.7671 28.9412 25.0204 28.6859ZM40.4832 29.8953C40.1628 29.7273 39.837 29.5683 39.5062 29.4187C39.7839 29.1862 40.0501 28.9421 40.3041 28.6871C41.778 27.2076 42.8443 25.3635 43.3884 23.3343C44.0264 20.9553 43.9156 18.4376 43.0713 16.1238C42.2269 13.8101 40.69 11.8127 38.6698 10.4038C36.6496 8.99486 34.2442 8.24277 31.7812 8.24992C30.6843 8.2481 29.5925 8.39956 28.5375 8.69992C28.249 8.77627 27.9786 8.90924 27.742 9.0911C27.5053 9.27296 27.3073 9.50007 27.1593 9.75921C27.0113 10.0184 26.9163 10.3044 26.8799 10.6005C26.8435 10.8967 26.8664 11.1972 26.9472 11.4845C27.028 11.7718 27.1652 12.0401 27.3507 12.2738C27.5363 12.5076 27.7664 12.7021 28.0279 12.846C28.2893 12.99 28.5767 13.0805 28.8734 13.1122C29.1702 13.144 29.4703 13.1165 29.7562 13.0312C30.4148 12.8433 31.0964 12.7486 31.7812 12.7499C33.7704 12.7499 35.678 13.5401 37.0845 14.9466C38.4911 16.3531 39.2812 18.2608 39.2812 20.2499C39.2812 22.239 38.4911 24.1467 37.0845 25.5532C35.678 26.9597 33.7704 27.7499 31.7812 27.7499C31.1845 27.7499 30.6122 27.987 30.1902 28.4089C29.7683 28.8309 29.5312 29.4032 29.5312 29.9999C29.5312 30.5967 29.7683 31.169 30.1902 31.5909C30.6122 32.0129 31.1845 32.2499 31.7812 32.2499C34.068 32.2524 36.3207 32.8038 38.3501 33.8576C40.3795 34.9115 42.1263 36.4371 43.4437 38.3062C43.6521 38.6 43.9275 38.84 44.247 39.0062C44.5665 39.1725 44.921 39.2603 45.2812 39.2624C45.7451 39.2639 46.1976 39.1196 46.575 38.8499C46.818 38.6814 47.0251 38.4663 47.1842 38.2171C47.3434 37.9678 47.4514 37.6894 47.502 37.3981C47.5526 37.1067 47.5447 36.8082 47.479 36.5199C47.4132 36.2316 47.2907 35.9592 47.1187 35.7187C45.3984 33.2733 43.122 31.2788 40.4832 29.8953ZM27.4364 21.4238C27.3762 21.9781 27.2733 22.5278 27.1278 23.0728C26.9824 23.6178 26.7977 24.1454 26.5737 24.6559C26.3497 25.1665 26.0864 25.6598 25.7838 26.1359C25.4812 26.6121 25.1463 27.0599 24.7792 27.4796C24.4121 27.8991 24.0128 28.2904 23.5812 28.6534L22.3665 29.6753L23.8127 30.3297C24.5359 30.657 25.2311 31.029 25.8985 31.4457C26.5654 31.8621 27.2045 32.3233 27.8157 32.8291C28.427 33.335 28.9996 33.8767 29.5336 34.4541C30.0676 35.0317 30.563 35.645 31.0196 36.2941L31.0339 36.3144L31.0492 36.334C31.1019 36.4015 31.1468 36.4728 31.1841 36.5479C31.2213 36.6229 31.2508 36.7018 31.2726 36.7845C31.2943 36.8672 31.3076 36.9503 31.3122 37.0339C31.3168 37.1177 31.3129 37.2019 31.3003 37.2866C31.2878 37.3712 31.2671 37.4529 31.2384 37.5316C31.2097 37.6103 31.1729 37.6861 31.128 37.7589C31.0831 37.8318 31.0319 37.8987 30.9745 37.9598C30.9171 38.0208 30.8534 38.076 30.7835 38.1252C30.7135 38.1745 30.64 38.2159 30.5631 38.2494C30.4863 38.2828 30.4061 38.3084 30.3225 38.3261C30.2389 38.3437 30.1553 38.3528 30.0716 38.3534C29.9877 38.3539 29.9037 38.3458 29.8197 38.329C29.7358 38.3123 29.6552 38.2877 29.578 38.2551C29.5008 38.2226 29.4269 38.1821 29.3564 38.1336C29.2858 38.0852 29.2215 38.0308 29.1633 37.9704C29.1052 37.9101 29.0533 37.8438 29.0075 37.7715L28.9947 37.7512L28.9809 37.7316C28.629 37.2304 28.2499 36.7537 27.8436 36.3015C27.4376 35.8497 27.0044 35.4223 26.5441 35.0193C26.0833 34.6161 25.6019 34.243 25.0999 33.9002C24.5982 33.5576 24.0759 33.2453 23.533 32.9631C22.99 32.6808 22.434 32.4328 21.8652 32.219C21.2963 32.0052 20.7146 31.8257 20.12 31.6804C19.5254 31.5351 18.9265 31.4261 18.3232 31.3535C17.7198 31.2808 17.1121 31.2445 16.5 31.2445C15.8879 31.2445 15.2801 31.2808 14.6768 31.3535C14.0735 31.4261 13.4745 31.5351 12.88 31.6804C12.2854 31.8257 11.7036 32.0052 11.1348 32.219C10.5659 32.4328 10.01 32.6808 9.46693 32.9631C8.92388 33.2454 8.40146 33.5578 7.89966 33.9005C7.39778 34.2432 6.91653 34.6162 6.45591 35.0193C6.0296 35.3925 5.62645 35.7868 5.24645 36.2023C4.80538 36.6846 4.3955 37.1954 4.01683 37.7347C3.9591 37.8176 3.89341 37.8915 3.81974 37.9563C3.74606 38.021 3.66441 38.0767 3.57479 38.1234C3.50083 38.1619 3.42458 38.1924 3.34605 38.2149C3.23425 38.2469 3.11781 38.2628 2.99673 38.2624C2.87676 38.2628 2.7616 38.2468 2.65124 38.2144C2.52186 38.1765 2.39909 38.116 2.28293 38.033C2.21531 37.9852 2.15354 37.9319 2.09761 37.8731C2.04171 37.8143 1.99164 37.7499 1.94741 37.68C1.90317 37.6101 1.86646 37.5372 1.83726 37.4615C1.80806 37.3858 1.78638 37.3072 1.77222 37.2256C1.75807 37.1441 1.75197 37.0628 1.75392 36.9817C1.75588 36.9005 1.76589 36.8195 1.78396 36.7388C1.80284 36.6544 1.82971 36.5737 1.86459 36.4966C1.89649 36.4261 1.93508 36.3585 1.98036 36.2941C2.437 35.645 2.93233 35.0317 3.46636 34.4541C4.00031 33.8767 4.57294 33.335 5.18426 32.8291C5.79559 32.3232 6.43482 31.8619 7.10196 31.4454C7.76915 31.0288 8.46426 30.6569 9.18727 30.3297L10.6334 29.6753L9.41873 28.6534C8.98715 28.2904 8.58784 27.8991 8.22079 27.4796C7.85364 27.0599 7.51877 26.612 7.21618 26.1359C6.91363 25.6599 6.65035 25.1666 6.42634 24.6561C6.20233 24.1455 6.01759 23.6178 5.87212 23.0728C5.72665 22.5279 5.62381 21.9783 5.56359 21.424C5.50337 20.8698 5.48579 20.3109 5.51083 19.7474C5.53588 19.1839 5.60297 18.6288 5.71212 18.0821C5.82127 17.5354 5.97247 16.9971 6.16573 16.4671C6.35898 15.9372 6.58981 15.428 6.85822 14.9393C7.12664 14.4507 7.43266 13.9827 7.77625 13.5354C8.11985 13.088 8.49309 12.6716 8.89598 12.2863C9.29884 11.9009 9.73133 11.5466 10.1935 11.2232C10.6556 10.8998 11.1367 10.6149 11.6367 10.3684C12.1368 10.122 12.6559 9.91397 13.1939 9.74443C13.7318 9.57491 14.2763 9.44776 14.8273 9.36299C15.3784 9.27822 15.9359 9.23584 16.5 9.23584C17.0641 9.23584 17.6216 9.27822 18.1726 9.363C18.7236 9.44776 19.2681 9.57491 19.8061 9.74443C20.3441 9.91397 20.8631 10.122 21.3632 10.3684C21.8633 10.6149 22.3444 10.8998 22.8065 11.2232C23.2687 11.5466 23.7012 11.901 24.1041 12.2863C24.5069 12.6717 24.8801 13.088 25.2237 13.5354C25.5673 13.9827 25.8733 14.4507 26.1417 14.9393C26.4102 15.4279 26.641 15.9372 26.8342 16.4671C27.0274 16.9969 27.1786 17.5351 27.2878 18.0817C27.397 18.6285 27.4641 19.1838 27.4891 19.7474C27.5142 20.3108 27.4966 20.8696 27.4364 21.4238ZM45.287 38.2624L45.2845 38.2624C45.1832 38.2617 45.0848 38.2494 44.9892 38.2257C44.8928 38.2019 44.7993 38.1663 44.7086 38.1192C44.618 38.072 44.5353 38.0158 44.4605 37.9506C44.3856 37.8854 44.3185 37.811 44.2594 37.7277C43.9272 37.2563 43.5707 36.8065 43.1899 36.3783C42.7641 35.8995 42.3081 35.4478 41.8217 35.023C41.3607 34.6204 40.8791 34.2479 40.3769 33.9055C39.8755 33.5637 39.3535 33.2519 38.811 32.9702C38.2678 32.6881 37.7118 32.4402 37.1429 32.2264C36.5747 32.0129 35.9937 31.8335 35.3999 31.6882C34.8056 31.5427 34.2068 31.4335 33.6037 31.3604C33.001 31.2874 32.3938 31.2506 31.7823 31.2499C31.6943 31.2499 31.6081 31.241 31.5238 31.2233C31.4487 31.2075 31.375 31.1847 31.3029 31.1548C31.2263 31.1231 31.1542 31.0846 31.0867 31.0395C31.0191 30.9943 30.956 30.9424 30.8974 30.8838C30.8387 30.8252 30.7868 30.7621 30.7417 30.6945C30.6965 30.6269 30.6581 30.5548 30.6264 30.4783C30.5947 30.4017 30.5709 30.3235 30.555 30.2438C30.5392 30.1641 30.5312 30.0828 30.5312 29.9999C30.5312 29.917 30.5392 29.8357 30.555 29.7559C30.5709 29.6762 30.5947 29.5981 30.6264 29.5216C30.6581 29.445 30.6965 29.373 30.7416 29.3055C30.7868 29.2378 30.8387 29.1747 30.8974 29.116C30.956 29.0574 31.0191 29.0055 31.0868 28.9603C31.1543 28.9152 31.2264 28.8768 31.3029 28.8451C31.3794 28.8134 31.4576 28.7896 31.5373 28.7737C31.617 28.7579 31.6983 28.7499 31.7812 28.7499C32.3448 28.7499 32.8977 28.696 33.4398 28.5882C33.9819 28.4803 34.5134 28.3186 35.034 28.1029C35.5547 27.8872 36.0448 27.6259 36.5044 27.3188C36.964 27.0117 37.3931 26.6589 37.7916 26.2603C38.1901 25.8618 38.5429 25.4328 38.85 24.9733C39.1571 24.5136 39.4185 24.0235 39.6342 23.5027C39.8499 22.982 40.0117 22.4505 40.1195 21.9083C40.2273 21.3662 40.2812 20.8134 40.2812 20.2499C40.2812 19.6864 40.2273 19.1336 40.1195 18.5915C40.0117 18.0493 39.8499 17.5178 39.6342 16.9971C39.4185 16.4764 39.1571 15.9862 38.85 15.5266C38.5429 15.067 38.1901 14.638 37.7916 14.2395C37.3932 13.841 36.9641 13.4882 36.5046 13.1812C36.0449 12.874 35.5548 12.6126 35.034 12.3969C34.5134 12.1813 33.982 12.0195 33.4399 11.9117C32.8977 11.8038 32.3448 11.7499 31.7812 11.7499C31.4069 11.7492 31.0359 11.7733 30.6683 11.8223C30.2689 11.8754 29.8735 11.9578 29.4819 12.0695C29.348 12.1094 29.2145 12.1278 29.0816 12.1246C29.0477 12.1238 29.0138 12.1216 28.98 12.1179C28.8967 12.109 28.8159 12.0922 28.7376 12.0676C28.6593 12.0429 28.5835 12.0104 28.5102 11.97C28.4368 11.9297 28.3688 11.883 28.3061 11.83C28.2434 11.777 28.1861 11.7177 28.134 11.6522C28.0819 11.5866 28.0372 11.5172 27.9999 11.4441C27.9625 11.371 27.9325 11.2942 27.9098 11.2136C27.8871 11.133 27.8727 11.0517 27.8664 10.9699C27.8602 10.888 27.8622 10.8056 27.8724 10.7225C27.8826 10.6395 27.9007 10.5591 27.9265 10.4812C27.9524 10.4032 27.9861 10.3279 28.0276 10.2551C28.0692 10.1824 28.1169 10.1151 28.1709 10.0533C28.2248 9.99142 28.285 9.93498 28.3513 9.88396C28.4177 9.83293 28.4878 9.78931 28.5615 9.75308C28.6351 9.71687 28.7124 9.68806 28.7933 9.66664C29.4398 9.48266 30.0921 9.3596 30.7501 9.29745C31.0917 9.26519 31.4349 9.24935 31.7796 9.24992C32.3782 9.24818 32.9692 9.29403 33.5527 9.38746C34.0722 9.47066 34.5857 9.59159 35.0931 9.75026C35.6318 9.91868 36.1515 10.1257 36.6522 10.3713C37.153 10.617 37.6348 10.9012 38.0978 11.224C38.5607 11.5469 38.994 11.9009 39.3976 12.286C39.801 12.671 40.1748 13.0871 40.519 13.5343C40.8632 13.9818 41.1698 14.4499 41.4387 14.9388C41.7074 15.4274 41.9385 15.9366 42.1319 16.4666C42.3253 16.9968 42.4766 17.5354 42.5858 18.0824C42.6949 18.6294 42.7619 19.1848 42.7867 19.7485C42.8115 20.3127 42.7935 20.8721 42.7327 21.4268C42.6721 21.981 42.5687 22.5305 42.4226 23.0753C42.2764 23.6204 42.0908 24.1483 41.8659 24.6588C41.6411 25.1691 41.3769 25.6622 41.0734 26.1379C40.7699 26.6134 40.4342 27.0606 40.0662 27.4795C39.6979 27.8987 39.2973 28.2895 38.8644 28.6518L37.6438 29.6735L39.0939 30.3297C39.817 30.6569 40.5121 31.0288 41.1792 31.4454C41.8464 31.8619 42.4856 32.3232 43.097 32.8291C43.7086 33.3352 44.2814 33.8772 44.8156 34.4549C45.3493 35.0322 45.8444 35.6453 46.3009 36.2941C46.3693 36.3899 46.4229 36.4911 46.4615 36.5978C46.4786 36.6449 46.4928 36.6931 46.504 36.7424C46.5223 36.8226 46.5326 36.9031 46.5347 36.9838C46.5368 37.0646 46.5308 37.1457 46.5167 37.227C46.5026 37.3082 46.481 37.3864 46.4517 37.4618C46.4225 37.5371 46.3857 37.6095 46.3414 37.6789C46.2971 37.7482 46.2471 37.8119 46.1912 37.87C46.1351 37.9284 46.0731 37.9811 46.0052 38.0281C45.8743 38.1216 45.7363 38.1871 45.591 38.2246C45.4929 38.25 45.3916 38.2626 45.287 38.2624ZM10.2015 14.5413C9.92235 14.8494 9.666 15.1781 9.43249 15.5276C9.19898 15.877 8.99335 16.2397 8.81559 16.6156C8.63785 16.9914 8.48799 17.3803 8.36599 17.7825C8.24399 18.1847 8.15249 18.5914 8.09149 19.0026C8.03049 19.4138 7.99998 19.8296 7.99998 20.2499C7.99998 20.8135 8.0539 21.3664 8.16174 21.9085C8.26957 22.4506 8.43133 22.982 8.64701 23.5027C8.86267 24.0234 9.12405 24.5135 9.43113 24.9731C9.73823 25.4327 10.091 25.8618 10.4896 26.2603C10.8881 26.6589 11.3172 27.0117 11.7768 27.3188C12.2364 27.6259 12.7265 27.8872 13.2472 28.1029C13.7679 28.3186 14.2993 28.4803 14.8415 28.5882C15.3836 28.696 15.9364 28.7499 16.5 28.7499C16.9203 28.7499 17.3362 28.7194 17.7475 28.6584C18.1586 28.5974 18.5653 28.5059 18.9674 28.3839C19.3697 28.2619 19.7588 28.112 20.1347 27.9342C20.5104 27.7564 20.873 27.5509 21.2223 27.3174C21.5717 27.084 21.9004 26.8277 22.2084 26.5486C22.5165 26.2693 22.8039 25.9672 23.0706 25.6423C23.3372 25.3173 23.5775 24.9765 23.7912 24.6199C24.0049 24.2633 24.1922 23.891 24.353 23.5027C24.5138 23.1145 24.6447 22.7187 24.7457 22.3155C24.8467 21.9122 24.9179 21.5014 24.9591 21.0831C25.0002 20.6648 25.0106 20.2481 24.9902 19.8328C24.9698 19.4176 24.9187 19.0039 24.8367 18.5917C24.7547 18.1794 24.6436 17.7775 24.5035 17.3861C24.3635 16.9947 24.1944 16.6137 23.9963 16.243C23.7982 15.8724 23.5754 15.5202 23.3278 15.1863C23.0801 14.8523 22.8076 14.5367 22.5104 14.2395C22.2132 13.9423 21.8976 13.6699 21.5637 13.4222C21.2298 13.1746 20.8775 12.9517 20.5069 12.7536C20.1362 12.5555 19.7551 12.3864 19.3636 12.2463C18.9722 12.1062 18.5704 11.9952 18.1583 11.9132C17.746 11.8313 17.3323 11.7801 16.9171 11.7597C16.5019 11.7393 16.0851 11.7497 15.6668 11.7908C15.2485 11.832 14.8377 11.9032 14.4344 12.0042C14.0312 12.1052 13.6354 12.2361 13.2472 12.3969C12.8589 12.5578 12.4864 12.7451 12.1298 12.9588C11.7732 13.1726 11.4325 13.4127 11.1076 13.6793C10.7828 13.946 10.4807 14.2333 10.2015 14.5413ZM10.264 16.0831C9.43985 17.3165 8.99998 18.7666 8.99998 20.2499C8.99998 22.239 9.79016 24.1467 11.1967 25.5532C12.6032 26.9597 14.5109 27.7499 16.5 27.7499C17.9833 27.7499 19.4334 27.3101 20.6668 26.4859C21.9001 25.6618 22.8614 24.4905 23.4291 23.12C23.9967 21.7496 24.1453 20.2416 23.8559 18.7867C23.5665 17.3319 22.8522 15.9955 21.8033 14.9466C20.7544 13.8977 19.418 13.1834 17.9632 12.894C16.5083 12.6046 15.0003 12.7532 13.6299 13.3208C12.2594 13.8885 11.0881 14.8498 10.264 16.0831Z" fill="rgb(76,175,79)" fill-rule="evenodd" />
</svg>
