<svg viewBox="0 0 48 48" xmlns="http://www.w3.org/2000/svg" xmlns:xlink="http://www.w3.org/1999/xlink" width="48.000000" height="48.000000" fill="none" customFrame="#000000">
	<rect id="Icon" width="48.000000" height="48.000000" x="0.000000" y="0.000000" />
	<g id="Group 2">
		<path id="Vector" d="M11.1408 2.40078C10.9 2.40078 10.6764 2.46698 10.4778 2.57347L10.4778 2.57064C10.4778 2.19181 10.3305 1.83603 10.0634 1.56957C9.7962 1.3024 9.4407 1.15515 9.0623 1.15515C8.81798 1.15515 8.59157 1.223 8.39083 1.33232C8.37057 0.985757 8.23204 0.661821 7.9849 0.414417C7.71773 0.147248 7.36222 0 6.98358 0C6.23129 0 5.62038 0.59135 5.57635 1.33256C5.34358 1.20675 5.08042 1.14078 4.80899 1.15821C4.06895 1.20675 3.4894 1.84615 3.4894 2.61423L3.4894 8.98088L2.76444 7.72492C2.48832 7.24454 1.97144 6.94628 1.41493 6.94628C1.14376 6.94628 0.875887 7.01743 0.638645 7.15337C0.343208 7.32465 0.131877 7.59959 0.0439945 7.92851C-0.044352 8.25764 0.0013514 8.60185 0.17216 8.89684C0.172395 8.89684 2.54415 13.004 2.68884 13.2563C2.70604 13.2943 2.75505 13.4043 2.79675 13.498C2.83657 13.5876 2.87073 13.6795 2.90347 13.7718C3.61873 15.7911 5.38976 17.0454 7.52569 17.0454C10.2994 17.0454 12.5559 14.5985 12.5559 11.5908L12.5561 3.81648C12.5561 3.43811 12.4091 3.08259 12.1422 2.81517C11.875 2.548 11.5195 2.40075 11.1407 2.40075L11.1408 2.40078ZM7.52571 16.2933C5.69038 16.2933 4.22755 15.2566 3.61242 13.5203C3.57307 13.41 3.53208 13.2998 3.48425 13.1923C3.34548 12.8811 3.34548 12.8811 3.30638 12.8363L3.30119 12.8408C3.10753 12.4754 2.5322 11.4791 0.823412 8.52041C0.753202 8.39908 0.734588 8.25818 0.770402 8.12343C0.806684 7.98866 0.893622 7.87511 1.01401 7.80561C1.38767 7.59098 1.89941 7.72951 2.11237 8.10057L3.53986 10.572C3.62515 10.7193 3.79761 10.7916 3.963 10.7468C4.12745 10.7028 4.24171 10.5536 4.24171 10.3835L4.24171 2.61401C4.24171 2.24743 4.5183 1.93103 4.85829 1.90865C5.05431 1.89829 5.23713 1.96402 5.37448 2.10114C5.49935 2.226 5.56814 2.39233 5.56814 2.57021L5.56814 7.65159C5.56814 7.85938 5.7366 8.02784 5.94439 8.02784C6.15219 8.02784 6.32064 7.85962 6.32064 7.65159L6.32041 1.41522C6.32041 1.04957 6.61797 0.752013 6.98361 0.752013C7.16125 0.752013 7.32805 0.820806 7.45316 0.945672C7.57803 1.07077 7.64682 1.23757 7.64682 1.41522L7.64682 7.65159C7.64682 7.85939 7.81504 8.02784 8.02307 8.02784C8.23087 8.02784 8.39932 7.85962 8.39932 7.65159L8.39909 2.62866L8.39909 2.57023C8.39909 2.20482 8.69665 1.90727 9.06253 1.90727C9.23993 1.90727 9.40627 1.9763 9.53208 2.10164C9.65695 2.22627 9.72574 2.3926 9.72574 2.57048L9.72574 7.65185C9.72574 7.85965 9.89396 8.0281 10.102 8.0281C10.3098 8.0281 10.4782 7.85989 10.4782 7.65185L10.4778 3.81631C10.4778 3.45042 10.7753 3.15286 11.1407 3.15286C11.3186 3.15286 11.4849 3.22189 11.6098 3.34652C11.7351 3.47186 11.8037 3.63867 11.8037 3.81631L11.8039 11.5907C11.8039 14.1834 9.88477 16.2932 7.52569 16.2932L7.52571 16.2933Z" fill="rgb(76,175,79)" fill-rule="nonzero" transform="matrix(1,0,0,-1,17.1709,26.0454)" />
		<path id="Vector" d="M9.14446 2.57347L9.14446 2.57064C9.14446 2.54769 9.13691 2.52868 9.12181 2.51362C9.10505 2.49687 9.08521 2.48849 9.0623 2.48849L9.06124 2.48904C9.05244 2.49144 9.04153 2.49619 9.02851 2.50328L7.18246 3.50859L7.05977 1.41014C7.05831 1.38521 7.05226 1.3674 7.04159 1.35673C7.02599 1.34113 7.00666 1.33333 6.98358 1.33333C6.96481 1.33333 6.94841 1.34002 6.93438 1.3534C6.91772 1.36928 6.9087 1.38869 6.90734 1.41162L6.78326 3.50047L4.94239 2.50553C4.92056 2.49373 4.90458 2.48816 4.89447 2.48881C4.88454 2.48946 4.87292 2.49712 4.85962 2.51179C4.83503 2.53893 4.82274 2.57308 4.82274 2.61423L4.82274 13.9579L1.60967 8.39147C1.59001 8.35727 1.56295 8.33022 1.52847 8.31033C1.49298 8.28985 1.45513 8.27961 1.41494 8.27961C1.37497 8.27961 1.33717 8.28982 1.30154 8.31024C1.31776 8.30085 1.32796 8.28833 1.33214 8.27268C1.33623 8.25747 1.33418 8.24282 1.32602 8.22872L2.58895 10.4156L3.87809 12.6495L3.99051 12.9011L4.01497 12.9561C4.06083 13.0592 4.10923 13.1826 4.16016 13.3263C4.2925 13.6999 4.47086 14.0369 4.69524 14.3372C4.91131 14.6264 5.16371 14.8733 5.45245 15.0778C5.74097 15.2821 6.05696 15.4379 6.40042 15.5452C6.75675 15.6565 7.13184 15.7121 7.52569 15.7121C8.01236 15.7121 8.47885 15.6096 8.92517 15.4045C9.36506 15.2024 9.75692 14.915 10.1008 14.5421C10.4517 14.1616 10.7241 13.7231 10.9181 13.2267C11.1211 12.7072 11.2226 12.1619 11.2226 11.5908L11.2228 3.81644C11.2228 3.79311 11.2147 3.77333 11.1985 3.7571C11.1832 3.74176 11.1639 3.73408 11.1407 3.73408L11.1407 2.40075L11.8433 1.26755L15.8216 3.73411L11.1408 3.73411L11.1404 3.7346C11.1316 3.73695 11.1208 3.7416 11.1079 3.74854L9.14446 4.80132L9.14446 2.57347ZM11.8111 2.57347L10.4778 2.57347L9.84772 1.3984C10.2592 1.17776 10.6902 1.06744 11.1408 1.06744L11.1408 2.40078L10.4382 3.53398L6.45983 1.06742L11.1407 1.06742C11.5068 1.06742 11.8576 1.13687 12.1932 1.27579C12.529 1.41478 12.8266 1.61392 13.0859 1.87323C13.3442 2.13201 13.5427 2.4292 13.6815 2.7648C13.8201 3.10025 13.8895 3.45082 13.8895 3.81652L13.8892 11.5908C13.8892 12.4969 13.7268 13.3657 13.4019 14.1972C13.086 15.0056 12.6391 15.7231 12.0611 16.3499C11.476 16.9844 10.8017 17.477 10.0384 17.8277C9.23879 18.1951 8.40121 18.3788 7.52569 18.3788C6.8607 18.3788 6.22063 18.2827 5.60549 18.0906C4.9938 17.8996 4.42904 17.6207 3.91121 17.2539C3.39359 16.8873 2.94283 16.4471 2.55891 15.9332C2.17306 15.4167 1.86902 14.8448 1.64678 14.2174C1.61896 14.1389 1.59621 14.0798 1.57853 14.04L1.55584 13.989L1.47151 13.8003L2.68884 13.2563L1.53401 13.9228L0.279699 11.7492L-0.981701 9.56496C-1.15583 9.26423 -1.26556 8.94277 -1.31089 8.60057C-1.35628 8.25793 -1.33404 7.91919 -1.24415 7.58434C-1.1545 7.24878 -1.00452 6.944 -0.794209 6.67C-0.5848 6.39717 -0.328145 6.17267 -0.0242442 5.9965C0.422004 5.7408 0.90173 5.61295 1.41494 5.61295C1.93123 5.61295 2.41332 5.74216 2.8612 6.00058C3.31007 6.25958 3.66274 6.61218 3.91921 7.05837L4.64417 8.31433L3.4894 8.98088L2.15607 8.98088L2.15607 2.61423C2.15607 2.25796 2.22056 1.9147 2.34956 1.58444C2.47496 1.26337 2.65302 0.975555 2.88374 0.72099C3.11726 0.463333 3.38832 0.257775 3.69691 0.104316C4.02023 -0.0564657 4.36243 -0.148696 4.72351 -0.172376C5.24345 -0.205777 5.73905 -0.0951248 6.21031 0.15958L5.57635 1.33256L4.24537 1.25349C4.26637 0.899871 4.35219 0.563182 4.50282 0.243426C4.64891 -0.0666723 4.84609 -0.340062 5.09436 -0.576745C5.34446 -0.815166 5.62883 -0.999584 5.94747 -1.13C6.27868 -1.26556 6.62405 -1.33333 6.98358 -1.33333C7.34958 -1.33333 7.70039 -1.26387 8.03601 -1.12493C8.37177 -0.985943 8.66917 -0.786932 8.9282 -0.527898C9.16884 -0.287002 9.35747 -0.0107695 9.49407 0.300801C9.62643 0.602696 9.70237 0.920596 9.72189 1.2545L8.39083 1.33232L7.75316 0.16136C8.16883 -0.0650008 8.60521 -0.178181 9.0623 -0.178181C9.42822 -0.178181 9.77898 -0.108703 10.1146 0.0302529C10.4503 0.169247 10.7471 0.367667 11.0049 0.625513C11.2642 0.884102 11.4635 1.1816 11.6027 1.518C11.7417 1.85363 11.8111 2.20451 11.8111 2.57064L11.8111 2.57347ZM2.35664 13.9684C2.31999 13.8657 2.28983 13.7877 2.26617 13.7346C2.20495 13.5973 2.1713 13.5226 2.16522 13.5104C2.20128 13.5825 2.24698 13.6503 2.30232 13.7136L2.30232 13.7136L3.30638 12.8363L4.17791 13.8454L2.90654 14.9435L2.12308 13.4652C2.00076 13.2344 1.18267 11.8084 -0.331186 9.18725C-0.45433 8.97444 -0.532108 8.74634 -0.564519 8.50295C-0.596911 8.2597 -0.581471 8.01903 -0.518202 7.78096C-0.453569 7.54088 -0.346728 7.32358 -0.197679 7.12907C-0.0478743 6.93357 0.133824 6.77417 0.347415 6.65087C0.601695 6.50481 0.875178 6.41571 1.16786 6.38359C1.43808 6.35394 1.70549 6.37473 1.97009 6.44597C2.23482 6.51724 2.47651 6.63357 2.69518 6.79494C2.93246 6.97005 3.12366 7.18403 3.26878 7.43687L4.69444 9.90514C4.58591 9.71777 4.4319 9.58269 4.23241 9.49991C4.03083 9.41627 3.82491 9.4029 3.61465 9.45981C3.40745 9.51532 3.2379 9.62907 3.106 9.80106C2.97425 9.97285 2.90837 10.167 2.90837 10.3835L2.90837 2.61401C2.90837 2.35958 2.95396 2.11336 3.04512 1.87536C3.133 1.64594 3.25751 1.43907 3.41864 1.25473C3.58533 1.06405 3.77943 0.910827 4.00097 0.795056C4.24353 0.668295 4.50012 0.59601 4.77073 0.5782C5.0639 0.562621 5.34046 0.602841 5.6004 0.69886C5.87198 0.799181 6.11067 0.952063 6.31647 1.15751C6.50483 1.34586 6.6495 1.56229 6.75048 1.80678C6.85115 2.05048 6.90148 2.30496 6.90148 2.57021L6.90148 7.65159C6.90148 7.52236 6.87622 7.39804 6.82572 7.27863C6.77722 7.16397 6.70903 7.0627 6.62115 6.97483C6.53328 6.88695 6.43201 6.81876 6.31735 6.77026C6.19794 6.71976 6.07362 6.6945 5.94439 6.6945C5.81534 6.6945 5.69116 6.71971 5.57187 6.77012C5.45713 6.8186 5.35579 6.8868 5.26784 6.97471C5.17984 7.06267 5.11157 7.16405 5.06303 7.27884C5.01255 7.39821 4.98731 7.52246 4.98731 7.65159L4.98708 1.41527C4.98707 1.14489 5.0397 0.885502 5.14495 0.637115C5.24609 0.398448 5.38847 0.187304 5.57209 0.00368434C5.75571 -0.179935 5.96685 -0.322311 6.20552 -0.423444C6.4539 -0.528695 6.71327 -0.581321 6.98361 -0.581321C7.24854 -0.581321 7.50282 -0.531079 7.74646 -0.430596C7.99098 -0.329747 8.20718 -0.185563 8.39506 0.0019542C8.58379 0.191033 8.72858 0.407838 8.82943 0.652368C8.92991 0.896003 8.98015 1.15029 8.98015 1.41522L8.98015 7.65159C8.98015 7.52254 8.95495 7.39836 8.90454 7.27907C8.85606 7.16433 8.78786 7.06299 8.69995 6.97504C8.61199 6.88704 8.51061 6.81877 8.39582 6.77023C8.27645 6.71975 8.1522 6.69451 8.02307 6.69451C7.89401 6.69451 7.76984 6.71971 7.65054 6.77012C7.53581 6.81861 7.43446 6.8868 7.34651 6.97472C7.25852 7.06268 7.19025 7.16405 7.1417 7.27884C7.09123 7.39821 7.06599 7.52246 7.06599 7.65159L7.06575 2.62872L7.06575 2.57023C7.06575 2.29985 7.11841 2.04045 7.22374 1.79203C7.32492 1.55338 7.46735 1.34226 7.65104 1.15867C7.83469 0.97511 8.04586 0.832789 8.28454 0.731705C8.5329 0.626526 8.79222 0.573937 9.06253 0.573937C9.328 0.573937 9.58279 0.624498 9.82691 0.725618C10.0701 0.826367 10.2855 0.970183 10.4731 1.15707C10.6619 1.34548 10.8069 1.5621 10.908 1.80691C11.0087 2.05063 11.0591 2.30515 11.0591 2.57048L11.0591 7.65185C11.0591 7.5228 11.0339 7.39862 10.9835 7.27933C10.935 7.16459 10.8668 7.06324 10.7789 6.9753C10.6909 6.8873 10.5895 6.81903 10.4747 6.77048C10.3554 6.72001 10.2311 6.69477 10.102 6.69477C9.97293 6.69477 9.84876 6.71997 9.72946 6.77038C9.61473 6.81887 9.51339 6.88706 9.42543 6.97498C9.33743 7.06294 9.26916 7.16432 9.22062 7.27911C9.17015 7.39848 9.14491 7.52273 9.14491 7.65185L9.14444 3.81647C9.14444 3.54605 9.19703 3.28666 9.30221 3.0383C9.4033 2.79962 9.54562 2.58846 9.72918 2.40481C9.91277 2.22112 10.1239 2.07869 10.3625 1.97751C10.6109 1.87219 10.8703 1.81953 11.1407 1.81953C11.4061 1.81953 11.6607 1.86994 11.9045 1.97077C12.1484 2.07159 12.3642 2.21561 12.5517 2.40282C12.7405 2.59159 12.8854 2.80851 12.9864 3.0536C13.0868 3.29712 13.137 3.55135 13.137 3.81631L13.1373 11.5906C13.1373 12.3927 12.9953 13.1621 12.7113 13.8988C12.4347 14.6165 12.0428 15.2541 11.5357 15.8115C11.0204 16.3779 10.426 16.818 9.75233 17.1317C9.04403 17.4616 8.30182 17.6265 7.52569 17.6265L7.52569 16.2932L8.80742 15.9259L9.29483 17.6266L7.52571 17.6266C6.93671 17.6266 6.37317 17.544 5.83509 17.3788C5.29375 17.2125 4.79558 16.9682 4.34059 16.6458C3.88589 16.3236 3.49005 15.9345 3.15307 15.4786C2.8184 15.0259 2.55258 14.5215 2.35562 13.9655L2.35664 13.9684ZM4.86921 13.075C5.08271 13.6777 5.42044 14.1427 5.88239 14.47C6.34331 14.7966 6.89108 14.96 7.52571 14.96L7.52571 16.2933L6.24397 16.6606L5.75657 14.9599L7.52569 14.9599C7.90812 14.9599 8.27505 14.878 8.62647 14.7144C8.97615 14.5515 9.28839 14.319 9.56319 14.017C9.84621 13.7059 10.0662 13.3468 10.2231 12.9397C10.3881 12.5116 10.4706 12.062 10.4706 11.5907L10.4704 3.81631C10.4704 3.90345 10.4873 3.98801 10.5211 4.07C10.5554 4.15326 10.6043 4.22667 10.6679 4.29022C10.7988 4.42087 10.9564 4.4862 11.1407 4.4862C11.3263 4.48619 11.4845 4.42078 11.6153 4.28995C11.7458 4.15933 11.8111 4.00139 11.8111 3.81614L11.8116 7.65185C11.8116 7.88315 11.7666 8.1051 11.6767 8.3177C11.5901 8.52253 11.4681 8.70363 11.3106 8.861C11.1533 9.01831 10.9722 9.14022 10.7674 9.22675C10.5549 9.31654 10.3331 9.36144 10.102 9.36144C9.87069 9.36144 9.64874 9.31649 9.43614 9.22659C9.23131 9.13997 9.05021 9.01795 8.89284 8.86051C8.73554 8.70314 8.61362 8.52206 8.52709 8.31729C8.4373 8.1048 8.39241 7.88299 8.39241 7.65185L8.39241 2.57048C8.39241 2.65798 8.40942 2.74291 8.44345 2.82527C8.47798 2.90882 8.52717 2.98247 8.59104 3.04622C8.72112 3.17581 8.87828 3.2406 9.06253 3.2406C9.24767 3.2406 9.40555 3.17533 9.53617 3.04477C9.667 2.91401 9.73242 2.75583 9.73242 2.57023L9.73242 2.6286L9.73266 7.65159C9.73266 7.88289 9.68771 8.10484 9.59781 8.31744C9.51119 8.52227 9.38916 8.70337 9.23173 8.86074C9.07435 9.01804 8.89328 9.13996 8.68851 9.22649C8.47602 9.31628 8.2542 9.36118 8.02307 9.36118C7.79177 9.36118 7.56982 9.31623 7.35722 9.22632C7.15239 9.13971 6.97128 9.01768 6.81392 8.86024C6.65661 8.70287 6.5347 8.52179 6.44817 8.31702C6.35838 8.10453 6.31349 7.88272 6.31349 7.65159L6.31349 1.41522C6.31349 1.59924 6.37941 1.75729 6.51126 1.88939C6.64215 2.02003 6.7996 2.08535 6.98361 2.08535C7.16898 2.08535 7.32701 2.02 7.4577 1.88931C7.5884 1.75861 7.65374 1.60057 7.65374 1.41516L7.65398 7.65159C7.65398 7.88289 7.60903 8.10483 7.51913 8.31743C7.43251 8.52226 7.31049 8.70336 7.15305 8.86073C6.99568 9.01804 6.8146 9.13996 6.60983 9.22649C6.39734 9.31628 6.17553 9.36117 5.94439 9.36117C5.71311 9.36117 5.49115 9.3162 5.27853 9.22627C5.07385 9.1397 4.89285 9.01775 4.73554 8.86044C4.57823 8.70313 4.45628 8.52213 4.36971 8.31744C4.27978 8.10483 4.23481 7.88287 4.23481 7.65159L4.23481 2.57021C4.23481 2.65766 4.2518 2.74253 4.28579 2.82481C4.32016 2.90801 4.36906 2.98133 4.4325 3.04477C4.5019 3.11405 4.58319 3.1659 4.67637 3.20032C4.76029 3.23132 4.85011 3.24425 4.94585 3.23911C5.04949 3.23229 5.14622 3.2054 5.23606 3.15846C5.31011 3.11976 5.37354 3.0702 5.42636 3.00978C5.52548 2.89639 5.57504 2.76447 5.57504 2.61401L5.57504 10.3835C5.57504 10.5742 5.54404 10.7596 5.48204 10.9398C5.42166 11.1152 5.335 11.2766 5.22204 11.4239C5.10903 11.5712 4.9756 11.6968 4.82175 11.8006C4.66366 11.9073 4.49352 11.9851 4.31134 12.0339C4.12653 12.0839 3.9388 12.1024 3.74816 12.0893C3.56202 12.0766 3.38276 12.0345 3.21037 11.9629C3.03877 11.8917 2.88291 11.7951 2.74281 11.673C2.60005 11.5487 2.48088 11.4039 2.38528 11.2389L0.955964 8.76427C1.03303 8.89854 1.13998 8.9841 1.27681 9.02094C1.41222 9.0574 1.54682 9.0372 1.68061 8.96035C1.77386 8.90652 1.85332 8.83674 1.91901 8.75102C1.984 8.6662 2.03067 8.57116 2.059 8.46589C2.08643 8.3627 2.09303 8.25772 2.07881 8.15096C2.06461 8.04428 2.03101 7.94515 1.97801 7.85356C3.50805 10.5027 4.34182 11.957 4.4793 12.2164L3.30119 12.8408L2.42966 11.8317L3.43815 10.9607L4.31043 11.959L4.31044 11.959C4.40489 12.0671 4.48496 12.1869 4.55067 12.3184C4.57423 12.3656 4.62478 12.4761 4.70233 12.6501C4.75351 12.765 4.8088 12.9057 4.86819 13.0722L4.86921 13.075Z" fill="rgb(76,175,79)" fill-rule="nonzero" transform="matrix(1,0,0,-1,17.1709,26.0454)" />
		<path id="Vector" d="M5.56096 9.95199L11.0207 13.2273C11.6789 13.6226 12.5259 13.4546 12.9481 12.8447C13.1022 12.6225 13.1809 12.3636 13.1931 12.0999C13.3967 12.2062 13.6181 12.2639 13.8436 12.2639C13.959 12.2639 14.075 12.2495 14.1895 12.221C14.5563 12.1294 14.8654 11.9001 15.0598 11.576C15.2544 11.2513 15.3112 10.8709 15.2195 10.5045C15.1349 10.1654 14.9288 9.8801 14.6421 9.68432C14.8426 9.56606 15.0155 9.40467 15.1385 9.19923C15.3331 8.87457 15.3899 8.49429 15.2984 8.12746C15.2068 7.76111 14.9776 7.45202 14.6529 7.25715L14.651 7.25597C14.848 7.13794 15.0178 6.9782 15.1394 6.77582C15.3343 6.45117 15.391 6.0707 15.2994 5.70388C15.2075 5.33729 14.9783 5.02819 14.6541 4.83356L7.98769 0.834262C6.7435 0.0881292 5.30515 -0.169408 3.93822 0.109781C2.55904 0.391558 1.41683 1.18432 0.722324 2.34209C-0.37676 4.17386 -0.212046 6.33807 1.15135 7.98986C1.21379 8.06525 1.27527 8.14206 1.33111 8.22169C1.39025 8.3058 1.45928 8.40476 1.48284 8.43868C1.62396 8.69077 3.92672 12.8397 3.92648 12.8392C4.15902 13.2588 4.59487 13.4963 5.04438 13.4961C5.25407 13.4961 5.46681 13.4445 5.66307 13.3356C5.90009 13.2032 6.09917 13.0102 6.23841 12.7777C6.52466 12.3006 6.53479 11.7036 6.26526 11.2204L5.56096 9.95199ZM5.59371 12.3909C5.52068 12.5127 5.42031 12.6098 5.29756 12.6786C5.04382 12.819 4.72435 12.7276 4.58466 12.4748C2.93691 9.50625 2.37521 8.49462 2.15845 8.13461L2.16339 8.13343C2.14525 8.07312 2.14525 8.07312 1.94688 7.7897C1.8795 7.69381 1.80623 7.60169 1.73155 7.51099C0.55918 6.09055 0.423054 4.30306 1.36707 2.72907C1.95183 1.75417 2.91827 1.08578 4.08846 0.846876C5.27138 0.606329 6.51817 0.830149 7.60031 1.47944L14.2673 5.47892C14.4195 5.57009 14.5269 5.71499 14.5698 5.88674C14.6127 6.05826 14.5861 6.2366 14.4947 6.38879C14.3067 6.70214 13.8984 6.80509 13.585 6.61638L10.2961 4.64324C10.118 4.53628 9.88662 4.59376 9.77989 4.77211C9.67293 4.95022 9.73065 5.18135 9.90876 5.28831L13.1979 7.26145L14.2661 7.90227C14.4183 7.99368 14.526 8.13858 14.5689 8.30986C14.6118 8.48161 14.5851 8.66019 14.4937 8.81215C14.3055 9.12573 13.8972 9.22774 13.5841 9.03973L9.22671 6.42577C9.04813 6.31857 8.81747 6.37653 8.71051 6.55464C8.60355 6.73275 8.66151 6.96387 8.83938 7.07083L14.1872 10.2789C14.3394 10.3704 14.4469 10.515 14.4897 10.6868C14.5326 10.8583 14.506 11.0366 14.4148 11.1888C14.3236 11.3408 14.1787 11.4482 14.007 11.4911C13.8343 11.534 13.6567 11.5073 13.5049 11.4164L12.515 10.8225C12.5147 10.8225 12.5147 10.8222 12.5145 10.8222L12.5142 10.8222L8.15711 8.20826C7.97853 8.10083 7.74764 8.15878 7.64091 8.33713C7.53396 8.51524 7.59191 8.74637 7.76979 8.85332L12.1272 11.4673C12.2794 11.5587 12.387 11.7036 12.4299 11.8749C12.477 12.0629 12.4412 12.2551 12.3295 12.4163C12.1359 12.6964 11.7217 12.7709 11.4077 12.5821L4.74547 8.58544C4.59964 8.49827 4.41281 8.51947 4.29053 8.63751C4.16802 8.75577 4.14045 8.94166 4.22291 9.09032L5.60824 11.5863C5.74725 11.8358 5.74183 12.1439 5.59364 12.3908L5.59371 12.3909Z" fill="rgb(76,175,79)" fill-rule="nonzero" transform="matrix(1,0,0,-1,7.96814,39.0001)" />
		<path id="Vector" d="M11.7072 12.0843C11.7422 12.1053 11.7776 12.1122 11.8134 12.1051C11.8327 12.1013 11.8455 12.0949 11.8518 12.0858C11.8569 12.0784 11.8601 12.0625 11.8612 12.038L11.9582 9.95126L13.8101 10.9179C13.8263 10.9264 13.8374 10.9306 13.8436 10.9306C13.8504 10.9306 13.8583 10.9294 13.8673 10.9272C13.8884 10.9219 13.9047 10.9096 13.9163 10.8903C13.9282 10.8704 13.9314 10.8496 13.926 10.828C13.9224 10.8135 13.9105 10.7993 13.8902 10.7855L12.1571 9.60211L13.9646 8.53591C13.9821 8.52561 13.992 8.51844 13.9944 8.51439C14.0068 8.49373 14.0102 8.47223 14.0047 8.44988C13.9994 8.4289 13.9868 8.41239 13.9667 8.40034L12.0966 7.23236L13.9656 6.11228C13.9833 6.10168 13.9936 6.09399 13.9965 6.08921C14.0082 6.0697 14.0113 6.04899 14.0058 6.02708C14.0004 6.00546 13.9877 5.98866 13.9678 5.97669L7.30177 1.97763C6.81969 1.68853 6.31047 1.49599 5.77412 1.40001C5.24463 1.30526 4.7216 1.31064 4.20503 1.41615C3.69439 1.52047 3.23731 1.71268 2.83381 1.99276C2.43731 2.26798 2.11461 2.61305 1.86572 3.02797C1.66301 3.3658 1.51771 3.71614 1.4298 4.07899C1.34508 4.42871 1.31611 4.77986 1.34291 5.13242C1.36972 5.48523 1.45155 5.82865 1.58839 6.1627C1.73049 6.50959 1.92758 6.83572 2.17964 7.14111C2.27629 7.2578 2.35735 7.36284 2.42283 7.45624L2.45559 7.5029L2.61515 7.73135L3.86722 9.98526L5.09224 12.1921C5.0814 12.1725 5.06521 12.1627 5.04367 12.1627C5.03375 12.1627 5.02466 12.165 5.0164 12.1696C5.04851 12.1516 5.07453 12.126 5.09447 12.0927C5.11553 12.0576 5.12641 12.0195 5.12711 11.9785C5.1278 11.9388 5.11904 11.9026 5.10085 11.87L1.9796 6.24867L11.7066 12.0839L11.7072 12.0843ZM10.3348 14.3707L4.87505 11.0954L5.56096 9.95199L6.72665 9.30474L7.42968 10.5709C7.68105 11.0215 7.80229 11.506 7.79339 12.0242C7.78451 12.5413 7.6475 13.0208 7.38234 13.4627C7.11857 13.9032 6.76103 14.2495 6.30975 14.5016C5.91575 14.7201 5.4942 14.8294 5.0451 14.8294C4.57865 14.8296 4.14325 14.7134 3.73889 14.4806C3.32074 14.2399 2.99468 13.9085 2.76072 13.4863L1.53608 11.2802L0.317268 9.08616L1.48284 8.43868L0.389729 9.20216L0.273071 9.03513L0.239393 8.98715C0.214848 8.95215 0.176069 8.90264 0.123055 8.83862C-0.300766 8.32515 -0.634866 7.77013 -0.879247 7.17358C-1.12241 6.58 -1.26802 5.96698 -1.31609 5.33451C-1.36418 4.70174 -1.31278 4.07394 -1.16189 3.4511C-1.01013 2.8247 -0.763193 2.2264 -0.421068 1.65621C0.0245181 0.913397 0.602616 0.295366 1.31323 -0.197886C2.01676 -0.686226 2.80282 -1.01912 3.6714 -1.19658C4.52164 -1.37024 5.37912 -1.3797 6.24384 -1.22496C7.10146 -1.07149 7.91138 -0.766208 8.67362 -0.309103L15.3404 3.69043C15.6539 3.87862 15.9187 4.1185 16.1349 4.41008C16.3512 4.70183 16.5039 5.02536 16.593 5.38068C16.6817 5.73575 16.6992 6.09301 16.6456 6.45246C16.592 6.81164 16.4709 7.1483 16.2824 7.46243C16.0506 7.8482 15.7353 8.1606 15.3364 8.39966L14.651 7.25597L15.3574 6.12514L15.3391 6.11395C15.6528 6.30222 15.9177 6.54213 16.134 6.8337C16.3505 7.12563 16.5032 7.44941 16.5922 7.80504C16.6806 8.15988 16.698 8.51687 16.6444 8.87601C16.5909 9.23486 16.4702 9.57088 16.2825 9.88406C16.0477 10.2763 15.7267 10.5926 15.3195 10.8327L14.6421 9.68432L15.3939 8.58319C15.6702 8.77188 15.9037 9.00068 16.0944 9.26962C16.2911 9.54723 16.4307 9.85099 16.513 10.1809C16.6018 10.5358 16.6194 10.893 16.5657 11.2525C16.5122 11.6115 16.3914 11.9479 16.2033 12.2617C16.0151 12.5755 15.7751 12.8405 15.4833 13.0568C15.1913 13.2733 14.8674 13.426 14.5116 13.5149C14.291 13.5698 14.0683 13.5972 13.8436 13.5972C13.4013 13.5972 12.9789 13.4921 12.5761 13.2819L13.1931 12.0999L14.525 12.1618C14.5002 12.6968 14.34 13.1774 14.0444 13.6035C13.8391 13.9002 13.5842 14.1459 13.2799 14.3406C12.9895 14.5263 12.6737 14.6531 12.3325 14.7208C11.9954 14.7877 11.6569 14.7923 11.317 14.7346C10.9673 14.6752 10.6397 14.5538 10.3342 14.3703L10.3348 14.3707ZM5.94315 13.8452C5.72348 13.9668 5.48911 14.0408 5.24004 14.0674C5.0001 14.0929 4.76401 14.0725 4.53177 14.0061C4.29911 13.9396 4.08766 13.8319 3.89744 13.683C3.69944 13.528 3.53951 13.3402 3.41765 13.1197L0.134292 7.2462L1.85439 6.8364L2.16339 8.13343L0.886566 8.51748L0.886566 8.51748C0.912261 8.60291 0.948252 8.68236 0.994539 8.75585C0.987999 8.74547 0.941329 8.67827 0.854527 8.55425C0.820043 8.50518 0.769279 8.43993 0.702236 8.35851C0.327477 7.90446 0.0320683 7.41748 -0.18399 6.89759C-0.40153 6.37413 -0.531472 5.83458 -0.573814 5.27892C-0.616178 4.72296 -0.569387 4.17013 -0.433438 3.62042C-0.29832 3.07406 -0.0792973 2.54835 0.22363 2.04327C0.614772 1.39116 1.12349 0.848523 1.74979 0.415362C2.36777 -0.0120506 3.05843 -0.303675 3.82175 -0.459511C4.58105 -0.613914 5.34658 -0.621672 6.11833 -0.482784C6.88317 -0.345141 7.60583 -0.0721735 8.28631 0.336119L14.9532 4.33554C15.1806 4.47176 15.373 4.64602 15.5305 4.85832C15.6881 5.07083 15.7991 5.30599 15.8634 5.56379C15.9278 5.82116 15.9404 6.08065 15.9013 6.34227C15.8622 6.60344 15.7743 6.84779 15.6377 7.07532C15.4989 7.30654 15.3207 7.50155 15.1029 7.66036C14.8935 7.81307 14.663 7.921 14.4112 7.98414C14.1589 8.04741 13.9043 8.06098 13.6473 8.02485C13.3794 7.98718 13.1294 7.89842 12.8971 7.75857L9.61015 5.7866C9.72051 5.85287 9.83982 5.8951 9.96807 5.91329C10.0913 5.93077 10.2132 5.92448 10.3337 5.89442C10.4546 5.8643 10.5654 5.81246 10.6663 5.73891C10.7715 5.66218 10.8574 5.56813 10.924 5.45676C10.9899 5.34713 11.0319 5.2281 11.05 5.09968C11.0675 4.9764 11.0612 4.85448 11.031 4.7339C11.0009 4.61334 10.9492 4.50277 10.8759 4.40218C10.7995 4.29741 10.706 4.21177 10.5952 4.14524L13.8838 6.11807L14.9521 6.7589C15.1795 6.89549 15.3717 7.06953 15.5288 7.28102C15.6867 7.49349 15.7978 7.72851 15.8623 7.98607C15.9268 8.24423 15.9394 8.50405 15.9003 8.76554C15.8612 9.02716 15.7732 9.2718 15.6363 9.49946C15.4976 9.73049 15.3192 9.92541 15.1012 10.0842C14.8917 10.2368 14.6611 10.3445 14.4092 10.4075C14.1573 10.4705 13.903 10.484 13.6464 10.448C13.3791 10.4104 13.1295 10.322 12.8977 10.1828L8.5408 7.56914C8.65119 7.63541 8.7705 7.67762 8.89873 7.69578C9.02227 7.71329 9.14446 7.70692 9.26532 7.67669C9.38604 7.64649 9.49672 7.59465 9.59738 7.52117C9.70184 7.4449 9.78724 7.35154 9.85357 7.24107C9.92022 7.13009 9.96262 7.01031 9.98076 6.88172C9.99816 6.75846 9.99179 6.63657 9.96166 6.51604C9.93158 6.39571 9.87995 6.28533 9.80678 6.1849C9.73053 6.08027 9.6371 5.99469 9.52648 5.92817L14.8731 9.13556C15.1008 9.2723 15.2932 9.44652 15.4502 9.65822C15.6079 9.87077 15.719 10.106 15.7834 10.3638C15.8477 10.621 15.8603 10.8803 15.8213 11.1418C15.7823 11.4026 15.6948 11.6467 15.5586 11.874C15.4218 12.1021 15.2473 12.2947 15.0351 12.452C14.8226 12.6095 14.5876 12.7204 14.3299 12.7847C14.0716 12.8489 13.8121 12.8615 13.5515 12.8227C13.2908 12.7838 13.0467 12.6963 12.8195 12.56L11.829 11.9658L12.515 10.8225L12.515 12.1558C12.2687 12.1558 12.04 12.0924 11.8288 11.9657C11.735 11.9094 11.6493 11.8426 11.5719 11.7652C11.6492 11.8425 11.7348 11.9093 11.8286 11.9656C12.0397 12.0922 12.2683 12.1556 12.5145 12.1556L12.145 12.1556L7.47118 9.35162C7.58093 9.41764 7.69999 9.45978 7.82838 9.47804C7.9521 9.49564 8.07449 9.4893 8.19554 9.45903C8.31655 9.42877 8.42749 9.37677 8.52835 9.30304C8.6331 9.22646 8.71866 9.13271 8.78504 9.02178C8.85098 8.91199 8.89302 8.7928 8.91116 8.66421C8.92856 8.54095 8.92219 8.41906 8.89206 8.29854C8.86198 8.1782 8.81035 8.06782 8.73718 7.9674C8.66093 7.86276 8.5675 7.77718 8.45689 7.71067L12.8131 10.3239C13.0405 10.4605 13.2327 10.6345 13.3899 10.846C13.5477 11.0585 13.6588 11.2935 13.7233 11.5511C13.7939 11.8327 13.8029 12.1153 13.7502 12.399C13.6981 12.6795 13.5899 12.9384 13.4254 13.1757C13.2716 13.3983 13.0777 13.5812 12.8438 13.7242C12.6305 13.8548 12.3992 13.9424 12.1498 13.9873C11.9087 14.0307 11.6672 14.031 11.4252 13.9883C11.1739 13.9439 10.9392 13.8562 10.7209 13.725L4.05955 9.72881C4.24594 9.84022 4.44623 9.8837 4.6604 9.85925C4.87534 9.83471 5.06073 9.74723 5.21656 9.59681C5.37264 9.44612 5.46667 9.26354 5.49863 9.04905C5.53055 8.83485 5.49397 8.63302 5.38889 8.44357L6.77405 10.9392C6.95942 11.2719 7.04866 11.63 7.04176 12.0135C7.03488 12.3953 6.93326 12.7498 6.73688 13.077L5.59364 12.3908L6.65508 11.5839L7.20137 12.3025L6.73723 13.0766C6.54241 13.4015 6.2798 13.6566 5.94942 13.8417L5.94315 13.8452ZM4.6457 11.5155C4.56366 11.5614 4.49848 11.6247 4.45018 11.7053L5.59371 12.3909L4.53226 13.1978L3.98574 12.4789L4.45039 11.7047C4.40216 11.7851 4.3772 11.872 4.37552 11.9655C4.3738 12.0609 4.39611 12.1502 4.44244 12.2333L3.05694 9.73707C2.96443 9.5703 2.9016 9.39307 2.86846 9.20541C2.83619 9.02271 2.83373 8.83957 2.86109 8.65599C2.88847 8.47227 2.94427 8.2977 3.0285 8.13228C3.11508 7.96223 3.22708 7.81087 3.36451 7.67821C3.50181 7.54566 3.65693 7.43913 3.82984 7.35861C3.99775 7.28042 4.17378 7.23081 4.35793 7.20979C4.54185 7.18879 4.72432 7.1974 4.90535 7.23559C5.09146 7.27487 5.26681 7.34369 5.43139 7.44207L12.0944 11.4393C11.9651 11.3616 11.8262 11.336 11.6777 11.3628C11.5986 11.377 11.5234 11.4059 11.4521 11.4496C11.3652 11.5027 11.2924 11.5718 11.2336 11.6568C11.1809 11.7329 11.1458 11.818 11.1283 11.9123C11.1103 12.0095 11.113 12.105 11.1365 12.1987C11.1815 12.3783 11.283 12.5156 11.4413 12.6107L7.08268 9.99598C6.88469 9.87693 6.71778 9.72419 6.58196 9.53779C6.45122 9.35837 6.35891 9.16086 6.30501 8.94528C6.25106 8.72948 6.23961 8.51157 6.27066 8.29156C6.30295 8.06276 6.37833 7.84974 6.49679 7.65248C6.6156 7.45393 6.76821 7.28652 6.95462 7.15025C7.13438 7.01884 7.33238 6.9261 7.5486 6.87203C7.76489 6.81794 7.98331 6.80658 8.20387 6.83794C8.43254 6.87046 8.64559 6.94612 8.84304 7.0649L13.2002 9.67887L12.5142 10.8222L12.5142 9.48889L12.5145 9.48889C12.7607 9.48889 12.9895 9.55224 13.2006 9.67894C13.2945 9.73526 13.3801 9.80212 13.4575 9.87953C13.3802 9.8022 13.2946 9.73539 13.2008 9.6791C12.9897 9.55245 12.7611 9.48913 12.515 9.48913L12.8842 9.48913L14.1904 10.2728C14.1149 10.2275 14.033 10.1983 13.9447 10.1852C13.8567 10.1721 13.7698 10.1762 13.684 10.1975C13.5042 10.2424 13.3665 10.3444 13.271 10.5036C13.1763 10.6618 13.1513 10.8305 13.1961 11.0097C13.241 11.1895 13.3427 11.3271 13.5013 11.4223L8.15228 8.21349C7.95429 8.09444 7.78738 7.9417 7.65156 7.7553C7.52082 7.57587 7.4285 7.37837 7.37461 7.16279C7.32066 6.94699 7.30921 6.72908 7.34026 6.50907C7.37255 6.28027 7.44828 6.06665 7.56745 5.86821C7.68634 5.67023 7.83885 5.50329 8.02498 5.36741C8.20457 5.2363 8.4023 5.14374 8.61819 5.08974C8.83426 5.03569 9.05245 5.02427 9.27278 5.05548C9.50125 5.08785 9.71453 5.16349 9.91261 5.28239L14.2705 7.89664C14.1112 7.80101 13.9418 7.77564 13.7622 7.82054C13.5831 7.86534 13.4461 7.96678 13.3512 8.12484C13.2557 8.28364 13.2304 8.45324 13.2755 8.63364C13.3204 8.81329 13.422 8.95062 13.5802 9.04564L12.512 8.40483L9.22233 6.43137C9.02407 6.31231 8.85695 6.15951 8.72098 5.97297C8.59008 5.79339 8.49769 5.59569 8.44381 5.37988C8.38992 5.16404 8.37854 4.9461 8.40968 4.72605C8.44203 4.49744 8.51739 4.28457 8.63577 4.08746C8.75482 3.88851 8.90783 3.72085 9.09479 3.58447C9.27457 3.45334 9.47254 3.36083 9.68871 3.30694C9.90455 3.25314 10.1225 3.24184 10.3425 3.27305C10.571 3.30545 10.7842 3.38107 10.982 3.49988L14.2729 5.4742C14.113 5.37788 13.9428 5.35234 13.7625 5.39758C13.5836 5.44246 13.4466 5.54402 13.3517 5.70227C13.2564 5.86084 13.2313 6.02998 13.2762 6.20969C13.3212 6.3898 13.4229 6.52733 13.5814 6.6223L6.91431 2.62276C6.51309 2.38203 6.09033 2.22168 5.64602 2.14172C5.20956 2.06317 4.77927 2.06702 4.35516 2.15326C3.94828 2.23633 3.58545 2.3881 3.26666 2.60858C2.95617 2.82332 2.70412 3.09208 2.51052 3.41486C2.18402 3.95925 2.04222 4.51306 2.08514 5.0763C2.12815 5.64072 2.35339 6.16978 2.76086 6.66346C2.87102 6.79726 2.96382 6.91782 3.03924 7.02515C3.1508 7.18455 3.22136 7.2877 3.25091 7.33461C3.33328 7.46539 3.39638 7.60365 3.44022 7.74939L3.44022 7.74939L3.84733 9.1029L2.46745 9.43165L2.15845 8.13461L3.32228 7.48402L5.75167 11.8299C5.69842 11.7336 5.62825 11.6513 5.54116 11.5831C5.45806 11.5181 5.36598 11.4711 5.26491 11.4422C5.16428 11.4134 5.06181 11.4046 4.95749 11.4157C4.84887 11.4273 4.74703 11.4594 4.65197 11.512L4.6457 11.5155Z" fill="rgb(76,175,79)" fill-rule="nonzero" transform="matrix(1,0,0,-1,7.96814,39.0001)" />
		<path id="Vector" d="M14.6203 2.34189C13.926 1.18394 12.7841 0.391363 11.4046 0.109581C10.0375 -0.169132 8.59961 0.0879055 7.35517 0.834061L0.688166 4.83354C0.363748 5.02815 0.134275 5.33725 0.0423938 5.70434C-0.0487815 6.07069 0.00823122 6.4512 0.202597 6.77538C0.323928 6.978 0.494029 7.13773 0.691229 7.25576L0.689344 7.25694C0.364926 7.45155 0.135454 7.76065 0.0440559 8.12726C-0.047825 8.49385 0.00918625 8.8746 0.203788 9.1992C0.329124 9.4077 0.500878 9.57074 0.696896 9.68642C0.41229 9.8822 0.207323 10.1666 0.122981 10.504C0.0311003 10.8708 0.0881134 11.2513 0.282715 11.5755C0.477086 11.8999 0.786425 12.1291 1.15303 12.2208C1.26753 12.2495 1.38368 12.2637 1.49866 12.2637C1.72436 12.2634 1.94582 12.2062 2.14937 12.0997C2.16186 12.3633 2.24031 12.6222 2.39439 12.8444C2.81682 13.4539 3.66308 13.6226 4.3223 13.227L9.78184 9.95221L9.07811 11.2198C8.80811 11.7037 8.81801 12.3007 9.10426 12.778C9.24373 13.0103 9.44305 13.2033 9.68123 13.3368C9.87702 13.4452 10.0891 13.4966 10.2982 13.4966C10.7475 13.4963 11.1839 13.2593 11.4161 12.8397C12.2257 11.3811 13.7533 8.63027 13.8607 8.43823C13.8835 8.40501 13.9526 8.30606 14.0117 8.22196C14.068 8.14209 14.1288 8.06576 14.1917 7.98989C15.5549 6.33743 15.7193 4.17346 14.6203 2.34187L14.6203 2.34189ZM13.6113 7.51042C13.5363 7.60112 13.4628 7.69371 13.3959 7.78913C13.1924 8.07797 13.1872 8.08551 13.1719 8.16114C12.9339 8.55482 12.3534 9.59991 10.7577 12.4747C10.6178 12.7271 10.2997 12.8192 10.0465 12.6792C9.92182 12.6095 9.82169 12.5122 9.74866 12.3904C9.6007 12.1437 9.59504 11.8355 9.73476 11.5853L11.1196 9.09011C11.2023 8.94121 11.1747 8.75556 11.0525 8.63729C10.9304 8.51879 10.7438 8.49805 10.5973 8.58523L3.9351 12.5819C3.62105 12.7702 3.20712 12.6964 3.01298 12.4161C2.9013 12.2549 2.86573 12.0627 2.91237 11.8749C2.95525 11.7034 3.06292 11.5587 3.21535 11.4673C3.21582 11.4671 3.21606 11.4666 3.21653 11.4664L7.57252 8.85313C7.75063 8.74617 7.80835 8.51528 7.70139 8.33693C7.59443 8.15906 7.36377 8.10086 7.18519 8.20806L1.83736 11.4162C1.68563 11.5071 1.50705 11.534 1.33553 11.4909C1.16354 11.448 1.01889 11.3405 0.927714 11.1881C0.836303 11.0362 0.809916 10.8578 0.852322 10.6863C0.895201 10.5148 1.00287 10.3699 1.15506 10.2785L2.19571 9.65436L6.50266 7.07031C6.68077 6.96335 6.7385 6.73246 6.63153 6.55411C6.52457 6.37623 6.29392 6.31827 6.11534 6.42524L1.75844 9.03921C1.4451 9.22769 1.03704 9.12544 0.84856 8.81162C0.75715 8.65943 0.730763 8.48108 0.773169 8.30956C0.816048 8.13804 0.923716 7.99339 1.07615 7.90174L2.14435 7.26092L5.43304 5.28778C5.61115 5.18082 5.66888 4.94993 5.56191 4.77158C5.45495 4.59371 5.2243 4.53527 5.04572 4.64271L1.75703 6.61585C1.6053 6.70679 1.42743 6.73365 1.25497 6.69054C1.08345 6.64766 0.938323 6.54023 0.847148 6.38827C0.755973 6.23607 0.729351 6.05749 0.771757 5.88621C0.814636 5.71469 0.922305 5.57004 1.07473 5.47839L7.74174 1.47891C8.82363 0.829821 10.0713 0.605094 11.2536 0.846347C12.4235 1.08524 13.39 1.75364 13.9747 2.72854C14.9197 4.30283 14.7838 6.09051 13.6117 7.51046L13.6113 7.51042Z" fill="rgb(76,175,79)" fill-rule="nonzero" transform="matrix(1,0,0,-1,24.9978,38.9996)" />
		<path id="Vector" d="M11.1383 1.41604C10.6213 1.31065 10.0981 1.3053 9.56865 1.4C9.0323 1.49593 8.52303 1.68846 8.04082 1.97759L1.37407 5.97692C1.35412 5.98889 1.34137 6.00594 1.33583 6.02808C1.33061 6.04903 1.33405 6.06959 1.34614 6.08976L1.34766 6.09107C1.35423 6.09745 1.36368 6.10433 1.376 6.1117L3.24611 7.23105L1.39612 8.38754C1.36251 8.40787 1.34307 8.42863 1.33779 8.4498C1.33215 8.4723 1.33534 8.49357 1.34736 8.51363C1.35262 8.52237 1.36167 8.53053 1.37453 8.53812L3.17456 9.60036L1.45257 10.7849C1.43207 10.799 1.42005 10.8132 1.41651 10.8273C1.41106 10.8491 1.41418 10.8697 1.4259 10.8892C1.43782 10.9091 1.45463 10.9218 1.47635 10.9272C1.48455 10.9293 1.49198 10.9303 1.49866 10.9303C1.50505 10.9303 1.51592 10.9263 1.53128 10.9183L3.38238 9.9498L3.48121 12.0366C3.48241 12.0618 3.48535 12.0778 3.49005 12.0846C3.4967 12.0942 3.50983 12.1009 3.52944 12.1048C3.56532 12.112 3.60094 12.1049 3.63629 12.0837L13.3626 6.24956L10.2438 11.867C10.2244 11.9017 10.2151 11.9391 10.2157 11.9791C10.2164 12.0201 10.2271 12.0578 10.2477 12.0923C10.268 12.126 10.2966 12.1532 10.3334 12.1739C10.3206 12.1668 10.3089 12.1632 10.2982 12.1632C10.2771 12.1632 10.2609 12.1735 10.2496 12.194L11.2273 10.4329L12.7281 7.73135L12.8851 7.50621L12.9204 7.45584C12.9885 7.35926 13.0702 7.25359 13.1653 7.13884C13.416 6.83499 13.6123 6.50957 13.7544 6.16258C13.8912 5.82845 13.973 5.48497 13.9998 5.13214C14.0266 4.77958 13.9976 4.42844 13.9128 4.07873C13.8249 3.71592 13.6796 3.36564 13.477 3.02791L11.5914 -0.11435L15.0554 1.08155L14.6203 2.34189L13.4768 3.02756C13.228 2.61264 12.9054 2.26761 12.5091 1.99247C12.1057 1.71246 11.6486 1.52028 11.1378 1.41594L11.1383 1.41604ZM11.6715 -1.19678C12.5402 -1.01932 13.3263 -0.686441 14.0297 -0.19813C14.7403 0.295129 15.3183 0.913245 15.7638 1.65622L17.6474 4.79751L14.1851 3.60221L14.6203 2.34187L15.7636 1.65583C16.1057 2.22606 16.3527 2.82434 16.5045 3.45067C16.6554 4.07346 16.7069 4.70123 16.6588 5.33397C16.6108 5.96641 16.4653 6.57944 16.2222 7.17307C15.9779 7.76965 15.6432 8.32561 15.2181 8.84094C15.1673 8.90217 15.129 8.95122 15.103 8.98807L15.0726 9.03136L14.9544 9.20081L13.8607 8.43823L15.0262 9.08576L13.5588 11.7272L12.5827 13.4854C12.3485 13.9084 12.0221 14.2404 11.6033 14.4812C11.1995 14.7134 10.7645 14.8297 10.2982 14.8299C9.84967 14.8299 9.4266 14.7199 9.02904 14.4998C8.58054 14.2482 8.22445 13.9029 7.96079 13.4637C7.69521 13.0209 7.55809 12.5409 7.54944 12.0236C7.54078 11.5054 7.66176 11.0217 7.91239 10.5726L8.61612 9.30501L9.78184 9.95221L10.4677 11.0956L5.00831 14.3703C4.70263 14.5538 4.37493 14.6751 4.02522 14.7344C3.68528 14.792 3.34676 14.7874 3.00966 14.7204C2.66864 14.6526 2.35297 14.5258 2.06264 14.3401C1.75861 14.1456 1.50398 13.9003 1.29874 13.6042C1.00327 13.1782 0.842868 12.6977 0.817533 12.1628L2.14937 12.0997L2.76747 13.2811C2.36581 13.4912 1.94288 13.5965 1.49866 13.597C1.27225 13.597 1.04926 13.5694 0.82971 13.5143C0.474707 13.4256 0.151214 13.273 -0.140767 13.0565C-0.432821 12.84 -0.67272 12.5751 -0.860466 12.2617C-1.04876 11.948 -1.1697 11.6117 -1.22331 11.2526C-1.27701 10.8928 -1.25943 10.5354 -1.17055 10.1806C-1.08836 9.85182 -0.949494 9.5491 -0.753954 9.27247C-0.564683 9.0047 -0.332959 8.77651 -0.0587815 8.5879L0.696896 9.68642L0.0192608 10.8347C-0.381625 10.5981 -0.701307 10.2815 -0.939788 9.88478C-1.12787 9.57105 -1.24869 9.2347 -1.30225 8.87573C-1.35595 8.5158 -1.33842 8.1588 -1.24968 7.80472C-1.1611 7.44942 -1.00841 7.12562 -0.791608 6.83331C-0.575305 6.54167 -0.317246 6.30602 -0.0174309 6.12634L-0.0155461 6.12517L0.691229 7.25576L0.00646007 8.39982C-0.393826 8.16023 -0.70963 7.84729 -0.940951 7.461C-1.1288 7.14769 -1.24956 6.8117 -1.30323 6.453C-1.35698 6.09384 -1.33958 5.73637 -1.25104 5.3806C-1.16215 5.02548 -1.0094 4.70191 -0.792792 4.4099C-0.576449 4.11825 -0.31143 3.87834 0.00226253 3.69016L6.66952 -0.309468C7.43163 -0.766426 8.2415 -1.07161 9.09912 -1.22501C9.96339 -1.3796 10.8207 -1.37022 11.671 -1.19688L11.6715 -1.19678ZM14.4858 8.5572C14.4014 8.67702 14.3576 8.73942 14.3546 8.74442C14.4143 8.64556 14.4557 8.53934 14.4787 8.42575L14.4327 8.65269L14.313 8.85085C14.1595 9.10475 13.363 10.5284 11.9235 13.1218C11.8021 13.3408 11.6429 13.5275 11.4461 13.6819C11.2564 13.8307 11.0457 13.9385 10.8138 14.0053C10.5816 14.0722 10.3455 14.093 10.1055 14.0678C9.8562 14.0417 9.62157 13.9678 9.4016 13.8463C9.06587 13.6584 8.80037 13.4017 8.60512 13.076C8.40888 12.7489 8.30741 12.3944 8.3007 12.0126C8.29396 11.6287 8.38392 11.2697 8.57059 10.9353L9.95379 8.44308C9.84882 8.63208 9.81222 8.83368 9.84399 9.04786C9.87581 9.26233 9.96964 9.44494 10.1255 9.59568C10.2809 9.74662 10.467 9.83438 10.6838 9.85897C10.8967 9.88312 11.0951 9.84051 11.2789 9.73114L4.62102 13.7253C4.40277 13.8561 4.16829 13.9437 3.91756 13.9879C3.67579 14.0306 3.43451 14.0303 3.19371 13.9871C2.94429 13.9424 2.7129 13.8548 2.49954 13.7244C2.26568 13.5815 2.07144 13.3984 1.91682 13.1752C1.75262 12.9382 1.64447 12.6795 1.59238 12.3989C1.5399 12.1162 1.54857 11.8344 1.61837 11.5534C1.68319 11.2941 1.79468 11.0581 1.95284 10.8455C2.11007 10.634 2.30232 10.4601 2.52961 10.3238L2.57341 10.2976L2.61907 10.2747C2.49027 10.3391 2.37501 10.4222 2.27329 10.5239C2.37549 10.4217 2.49114 10.3384 2.62024 10.2738L3.21653 11.4664L2.5306 10.323L6.88659 7.70976C6.77557 7.77643 6.68189 7.86211 6.60555 7.96679C6.53216 8.06742 6.4804 8.17806 6.45026 8.2987C6.42014 8.41932 6.4138 8.54127 6.43124 8.66457C6.44937 8.79273 6.49161 8.91212 6.55795 9.02273C6.6248 9.13391 6.71039 9.22756 6.81472 9.3037C6.9152 9.37703 7.02569 9.42879 7.14619 9.45897C7.267 9.48923 7.38916 9.49563 7.51269 9.47818C7.6411 9.46004 7.76068 9.41772 7.87143 9.35124L2.52326 12.5596C2.29573 12.6959 2.05153 12.7836 1.79067 12.8225C1.52846 12.8616 1.26841 12.8488 1.01049 12.784C0.753894 12.72 0.519234 12.609 0.306516 12.4511C0.0942607 12.2935 -0.080093 12.1007 -0.216545 11.8726C-0.352258 11.647 -0.439682 11.4034 -0.478816 11.1419C-0.51777 10.8815 -0.50551 10.623 -0.442035 10.3663C-0.377049 10.1063 -0.265632 9.87004 -0.107786 9.65746C0.0493321 9.44587 0.241444 9.27187 0.468549 9.13547L1.50993 8.5109L5.81669 5.92697C5.7057 5.99362 5.61203 6.07929 5.53569 6.18397C5.4623 6.2846 5.41054 6.39524 5.38041 6.51588C5.35028 6.63649 5.34394 6.75845 5.36138 6.88174C5.37952 7.00991 5.42175 7.1293 5.48809 7.2399C5.55501 7.3512 5.64071 7.44495 5.74518 7.52115C5.8457 7.59446 5.95622 7.64619 6.07672 7.67633C6.19731 7.7065 6.31925 7.71289 6.44254 7.6955C6.57062 7.67743 6.68993 7.63529 6.80047 7.56908L2.4444 10.1826C2.21332 10.3216 1.96406 10.4099 1.69664 10.4476C1.43972 10.4838 1.18516 10.4703 0.932973 10.4072C0.681066 10.3442 0.450348 10.2363 0.240818 10.0836C0.0230468 9.92484 -0.155379 9.72969 -0.29446 9.49812C-0.431059 9.27069 -0.518899 9.02635 -0.557979 8.76509C-0.596921 8.50475 -0.584657 8.24624 -0.521189 7.98954C-0.456154 7.72938 -0.344602 7.49297 -0.186531 7.28031C-0.0296018 7.06918 0.162279 6.89542 0.389111 6.75904L1.45843 6.11755L4.74706 4.14444C4.63608 4.21109 4.54241 4.29676 4.46607 4.40144C4.39268 4.50208 4.34092 4.61271 4.31078 4.73335C4.28066 4.85397 4.27432 4.97592 4.29176 5.09921C4.30989 5.22738 4.35213 5.34677 4.41847 5.45738C4.48524 5.56842 4.57072 5.66199 4.67491 5.73807C4.77536 5.81143 4.88583 5.86322 5.00633 5.89344C5.12734 5.92379 5.24973 5.9302 5.37351 5.91269C5.50225 5.89447 5.6221 5.85198 5.73306 5.78522L2.443 7.75919C2.21543 7.89559 1.97133 7.98325 1.71071 8.02217C1.44918 8.06123 1.18948 8.04853 0.931607 7.98407C0.674266 7.91973 0.439446 7.80891 0.227145 7.65161C0.0148009 7.49427 -0.159639 7.30182 -0.296176 7.07426C-0.432497 6.84671 -0.520187 6.60263 -0.559246 6.34202C-0.598323 6.0813 -0.586073 5.82255 -0.522498 5.56577C-0.457532 5.30589 -0.346013 5.06962 -0.187942 4.85695C-0.0310121 4.64582 0.160869 4.47207 0.387702 4.33569L7.05583 0.335531C7.7363 -0.0727196 8.45891 -0.345719 9.22367 -0.483467C9.99626 -0.622626 10.7618 -0.614826 11.5202 -0.460064C12.2835 -0.3042 12.9741 -0.0125608 13.5921 0.414853C14.2184 0.848029 14.7271 1.39065 15.1182 2.04272C15.4212 2.54758 15.6404 3.07323 15.7757 3.61965C15.9119 4.16943 15.9588 4.72233 15.9166 5.27836C15.8744 5.83408 15.7446 6.37368 15.5271 6.89717C15.3111 7.41708 15.0154 7.90444 14.6399 8.35924L14.1872 8.90767L13.4792 8.83719L13.6113 7.51042L14.6393 8.35953C14.5738 8.43878 14.5232 8.50383 14.4876 8.55467L14.4858 8.5572ZM12.3043 7.02358C12.3802 6.91535 12.4732 6.7946 12.5833 6.66131L13.036 6.11323L13.7437 6.18368L13.6117 7.51046L12.5834 6.66167C12.99 6.16908 13.2147 5.64066 13.2576 5.07639C13.3004 4.51311 13.1583 3.9591 12.8313 3.41435C12.6377 3.09156 12.3856 2.82278 12.0751 2.60803C11.7564 2.38755 11.3937 2.2358 10.987 2.15276C10.5631 2.06627 10.1329 2.06234 9.69638 2.14097C9.25198 2.22101 8.82906 2.38145 8.42764 2.62229L1.76177 6.62109C1.91919 6.52644 2.0206 6.3883 2.06601 6.20665C2.11019 6.02821 2.08501 5.86008 1.99047 5.70227C1.89531 5.54366 1.75792 5.44191 1.57833 5.39701C1.49267 5.3756 1.40551 5.37151 1.31683 5.38476C1.22861 5.39793 1.14668 5.42719 1.07105 5.47252L4.35837 3.5002C4.55701 3.3807 4.77083 3.30474 4.99983 3.27233C5.22036 3.24112 5.43875 3.25263 5.65501 3.30687C5.87065 3.36095 6.06817 3.4535 6.24758 3.58452C6.43342 3.72023 6.58602 3.88732 6.70535 4.08579C6.82423 4.28399 6.89982 4.49728 6.93213 4.72566C6.96327 4.94574 6.95188 5.1637 6.89797 5.37955C6.84406 5.5954 6.75162 5.79313 6.62064 5.97272C6.4847 6.15912 6.31749 6.31192 6.11901 6.43111L2.83027 8.40429L1.76318 9.04444C1.9206 8.94979 2.02205 8.81151 2.06753 8.62959C2.11167 8.45107 2.08635 8.28291 1.99158 8.12512C1.89645 7.96673 1.75938 7.86513 1.58038 7.82033C1.40038 7.77529 1.23108 7.80046 1.07248 7.89586L5.43021 5.2814C5.62845 5.16266 5.84173 5.08718 6.07004 5.05497C6.29012 5.02393 6.50806 5.0354 6.72387 5.08938C6.93953 5.14334 7.13709 5.23575 7.31655 5.36663C7.50269 5.50239 7.6555 5.66962 7.77498 5.86831C7.89385 6.06652 7.96944 6.27981 8.00175 6.50819C8.03289 6.72827 8.0215 6.94623 7.96759 7.16208C7.91368 7.37793 7.82124 7.57566 7.69027 7.75525C7.55433 7.94165 7.38711 8.09445 7.18863 8.21364L2.88149 10.7978L1.84158 11.4215C1.9995 11.3266 2.1012 11.1882 2.14668 11.0063C2.19089 10.8275 2.16599 10.66 2.07197 10.5037C2.02671 10.428 1.96809 10.3635 1.89612 10.31C1.82372 10.2563 1.74521 10.2189 1.66057 10.1978C1.48025 10.1524 1.31054 10.1774 1.15145 10.2728L6.49895 7.06489C6.69739 6.94576 6.91094 6.87005 7.1396 6.83774C7.3599 6.80661 7.57807 6.8181 7.79411 6.87222C8.00976 6.92623 8.2073 7.01871 8.38673 7.14966C8.57272 7.2854 8.72542 7.45256 8.84483 7.65114C8.96371 7.84934 9.0393 8.06263 9.07161 8.29101C9.10275 8.51109 9.09136 8.72906 9.03745 8.9449C8.98354 9.16076 8.89109 9.35848 8.76012 9.53807C8.62418 9.72448 8.45695 9.87728 8.25844 9.99649L3.85857 12.6361L3.81281 12.6589C3.94161 12.5945 4.05686 12.5115 4.15859 12.4098C4.05639 12.512 3.94074 12.5953 3.81164 12.6599L3.21535 11.4673L3.90109 12.6108C4.05925 12.5159 4.16102 12.3778 4.20638 12.1964C4.22951 12.1032 4.23213 12.0085 4.21423 11.9121C4.19675 11.8179 4.16171 11.7329 4.10913 11.657C4.04984 11.5714 3.97682 11.502 3.89006 11.449C3.81868 11.4054 3.74347 11.3765 3.66444 11.3623C3.51661 11.3358 3.3782 11.3612 3.24918 11.4386L9.91563 7.43931C10.2462 7.24265 10.6025 7.16597 10.9844 7.2093C11.1693 7.23027 11.346 7.28009 11.5145 7.35873C11.6881 7.43979 11.8431 7.54652 11.9794 7.67891C12.1166 7.81155 12.2283 7.96282 12.3147 8.13273C12.3988 8.29822 12.4545 8.47284 12.4818 8.65657C12.509 8.84024 12.5064 9.02345 12.474 9.2062C12.4407 9.39372 12.3779 9.5707 12.2854 9.73714L10.8989 12.2353C10.946 12.1511 10.9686 12.0612 10.967 11.9658C10.9653 11.8721 10.9404 11.7851 10.8922 11.7047C10.844 11.6243 10.777 11.5601 10.6913 11.5122C10.5957 11.4594 10.4933 11.4272 10.384 11.4158C10.2792 11.4047 10.1763 11.4138 10.0754 11.4429C9.97466 11.4719 9.88294 11.5189 9.80023 11.5837C9.71406 11.6513 9.64463 11.7326 9.59194 11.8276C11.0474 9.20551 11.8603 7.75344 12.0308 7.47143L13.1719 8.16114L11.8651 7.89653C11.9033 7.70784 11.9722 7.53092 12.072 7.36577C12.1074 7.30707 12.1855 7.19216 12.306 7.02106L12.3043 7.02358Z" fill="rgb(76,175,79)" fill-rule="nonzero" transform="matrix(1,0,0,-1,24.9978,38.9996)" />
	</g>
</svg>
