<svg viewBox="0 0 48 48" xmlns="http://www.w3.org/2000/svg" xmlns:xlink="http://www.w3.org/1999/xlink" width="48.000000" height="48.000000" fill="none">
	<rect id="Icon" width="48.000000" height="48.000000" x="0.000000" y="0.000000" fill="rgb(255,255,255)" fill-opacity="0" />
	<path id="Vector" d="M3 14.25C3 12.4598 3.71116 10.7429 4.97703 9.47703C6.2429 8.21116 7.95979 7.5 9.75 7.5L38.25 7.5C40.0402 7.5 41.7571 8.21116 43.023 9.47703C44.2888 10.7429 45 12.4598 45 14.25L45 33.75C45 35.5402 44.2888 37.2571 43.023 38.523C41.7571 39.7888 40.0402 40.5 38.25 40.5L9.75 40.5C7.95979 40.5 6.2429 39.7888 4.97703 38.523C3.71116 37.2571 3 35.5402 3 33.75L3 14.25ZM9.75 10.5C8.75544 10.5 7.80161 10.8951 7.09835 11.5983C6.39509 12.3016 6 13.2554 6 14.25L6 16.5L42 16.5L42 14.25C42 13.2554 41.6049 12.3016 40.9016 11.5983C40.1984 10.8951 39.2446 10.5 38.25 10.5L9.75 10.5ZM6 33.75C6 34.7446 6.39509 35.6984 7.09835 36.4016C7.80161 37.1049 8.75544 37.5 9.75 37.5L38.25 37.5C39.2446 37.5 40.1984 37.1049 40.9016 36.4016C41.6049 35.6984 42 34.7446 42 33.75L42 19.5L6 19.5L6 33.75ZM31.5 28.5L36 28.5C36.3978 28.5 36.7794 28.658 37.0607 28.9393C37.342 29.2206 37.5 29.6022 37.5 30C37.5 30.3978 37.342 30.7794 37.0607 31.0607C36.7794 31.342 36.3978 31.5 36 31.5L31.5 31.5C31.1022 31.5 30.7206 31.342 30.4393 31.0607C30.158 30.7794 30 30.3978 30 30C30 29.6022 30.158 29.2206 30.4393 28.9393C30.7206 28.658 31.1022 28.5 31.5 28.5Z" fill="rgb(76,175,79)" fill-rule="nonzero" />
	<path id="Vector" d="M4.97703 9.47703C3.71116 10.7429 3 12.4598 3 14.25L3 33.75C3 35.5402 3.71116 37.2571 4.97703 38.523C6.2429 39.7888 7.95979 40.5 9.75 40.5L38.25 40.5C40.0402 40.5 41.7571 39.7888 43.023 38.523C44.2888 37.2571 45 35.5402 45 33.75L45 14.25C45 12.4598 44.2888 10.7429 43.023 9.47703C41.7571 8.21116 40.0402 7.5 38.25 7.5L9.75 7.5C7.95979 7.5 6.2429 8.21116 4.97703 9.47703ZM4.96814 11.0549C5.17589 10.744 5.41455 10.4537 5.68414 10.1841C5.95372 9.91455 6.24397 9.67589 6.55488 9.46814C6.86578 9.26041 7.19735 9.08359 7.54957 8.93769C7.9018 8.7918 8.26128 8.68237 8.62801 8.60942C8.99475 8.53647 9.36875 8.5 9.75 8.5L38.25 8.5C38.6312 8.5 39.0052 8.53647 39.3719 8.60942C39.7387 8.68236 40.0982 8.79179 40.4504 8.93769C40.8026 9.08357 41.1341 9.26037 41.445 9.46807C41.756 9.67583 42.0462 9.91452 42.3159 10.1841C42.5855 10.4537 42.8242 10.744 43.0319 11.0549C43.2396 11.3658 43.4164 11.6974 43.5623 12.0496C43.7082 12.4018 43.8176 12.7612 43.8906 13.1279C43.9635 13.4947 44 13.8687 44 14.25L44 33.75C44 34.1313 43.9635 34.5053 43.8906 34.8721C43.8176 35.2388 43.7082 35.5982 43.5623 35.9504C43.4164 36.3026 43.2396 36.6341 43.0319 36.945C42.8242 37.256 42.5855 37.5462 42.3159 37.8159C42.0462 38.0855 41.756 38.3242 41.445 38.5319C41.1341 38.7396 40.8026 38.9164 40.4504 39.0623C40.0982 39.2082 39.7386 39.3177 39.3718 39.3906C39.0051 39.4635 38.6312 39.5 38.25 39.5L9.75 39.5C9.36877 39.5 8.99479 39.4635 8.62806 39.3906C8.26131 39.3176 7.90181 39.2082 7.54957 39.0623C7.19738 38.9164 6.86585 38.7396 6.55497 38.5319C6.24403 38.3242 5.95375 38.0855 5.68414 37.8159C5.41452 37.5462 5.17583 37.256 4.96807 36.945C4.76037 36.6341 4.58357 36.3026 4.43769 35.9504C4.29179 35.5982 4.18237 35.2387 4.10942 34.872C4.03647 34.5052 4 34.1312 4 33.75L4 14.25C4 13.8687 4.03647 13.4948 4.10942 13.128C4.18237 12.7613 4.2918 12.4018 4.43769 12.0496C4.58359 11.6973 4.76041 11.3658 4.96814 11.0549ZM7.11053 10.2998C6.8537 10.4714 6.61394 10.6685 6.39124 10.8912C6.16854 11.1139 5.97139 11.3537 5.79978 11.6105C5.62817 11.8674 5.4821 12.1413 5.36157 12.4323C5.24105 12.7232 5.15066 13.0202 5.09039 13.3231C5.03013 13.6261 5 13.9351 5 14.25L5 17.5L43 17.5L43 14.25C43 13.9352 42.9699 13.6263 42.9097 13.3234C42.8494 13.0204 42.759 12.7233 42.6384 12.4323C42.5179 12.1412 42.3718 11.8672 42.2001 11.6103C42.0285 11.3536 41.8314 11.1139 41.6088 10.8912C41.3861 10.6686 41.1463 10.4714 40.8895 10.2998C40.6326 10.1282 40.3587 9.9821 40.0677 9.86157C39.7768 9.74104 39.4798 9.65065 39.1768 9.59039C38.8739 9.53013 38.5649 9.5 38.25 9.5L9.75 9.5C9.43505 9.5 9.1261 9.53013 8.82314 9.59039C8.52019 9.65066 8.22322 9.74105 7.93225 9.86157C7.64128 9.9821 7.36737 10.1282 7.11053 10.2998ZM7.09835 11.5983C7.80161 10.8951 8.75544 10.5 9.75 10.5L38.25 10.5C39.2446 10.5 40.1984 10.8951 40.9016 11.5983C41.6049 12.3016 42 13.2554 42 14.25L42 16.5L6 16.5L6 14.25C6 13.2554 6.39509 12.3016 7.09835 11.5983ZM5.79975 36.3894C5.97136 36.6463 6.16853 36.886 6.39124 37.1088C6.61396 37.3315 6.85376 37.5286 7.11062 37.7003C7.36743 37.8719 7.64131 38.0179 7.93225 38.1384C8.22324 38.259 8.52021 38.3493 8.82319 38.4096C9.12613 38.4699 9.43507 38.5 9.75 38.5L38.25 38.5C38.565 38.5 38.8739 38.4699 39.1769 38.4096C39.4799 38.3493 39.7768 38.2589 40.0677 38.1384C40.3587 38.0179 40.6326 37.8718 40.8895 37.7002C41.1463 37.5286 41.3861 37.3315 41.6088 37.1088C41.8314 36.8861 42.0286 36.6463 42.2002 36.3895C42.3718 36.1327 42.5179 35.8587 42.6384 35.5677C42.759 35.2767 42.8494 34.9796 42.9097 34.6765C42.9699 34.3737 43 34.0648 43 33.75L43 18.5L5 18.5L5 33.75C5 34.0649 5.03013 34.3739 5.09039 34.6768C5.15065 34.9798 5.24104 35.2768 5.36157 35.5677C5.48209 35.8587 5.62815 36.1326 5.79975 36.3894ZM42 20.5L42 33.75C42 34.7446 41.6049 35.6984 40.9016 36.4016C40.1984 37.1049 39.2446 37.5 38.25 37.5L9.75 37.5C8.75544 37.5 7.80161 37.1049 7.09835 36.4016C6.39509 35.6984 6 34.7446 6 33.75L6 19.5L42 19.5L42 20.5ZM36 28.5L31.5 28.5C31.1022 28.5 30.7206 28.658 30.4393 28.9393C30.158 29.2206 30 29.6022 30 30C30 30.3978 30.158 30.7794 30.4393 31.0607C30.7206 31.342 31.1022 31.5 31.5 31.5L36 31.5C36.3978 31.5 36.7794 31.342 37.0607 31.0607C37.342 30.7794 37.5 30.3978 37.5 30C37.5 29.6022 37.342 29.2206 37.0607 28.9393C36.7794 28.658 36.3978 28.5 36 28.5ZM31.5 29.5L36 29.5C36.069 29.5 36.133 29.5122 36.192 29.5366C36.2509 29.561 36.3047 29.5976 36.3536 29.6464C36.4024 29.6953 36.439 29.7491 36.4634 29.8081C36.4878 29.867 36.5 29.931 36.5 30C36.5 30.069 36.4878 30.133 36.4634 30.1919C36.439 30.2509 36.4024 30.3047 36.3536 30.3536C36.3048 30.4024 36.2509 30.439 36.192 30.4634C36.1331 30.4878 36.0691 30.5 36 30.5L31.5 30.5C31.431 30.5 31.367 30.4878 31.3081 30.4634C31.2491 30.439 31.1953 30.4024 31.1464 30.3536C31.0976 30.3047 31.061 30.2509 31.0366 30.1919C31.0122 30.133 31 30.069 31 30C31 29.931 31.0122 29.867 31.0366 29.8081C31.061 29.7491 31.0976 29.6953 31.1464 29.6464C31.1953 29.5976 31.2491 29.561 31.3081 29.5366C31.367 29.5122 31.431 29.5 31.5 29.5Z" fill="rgb(76,175,79)" fill-rule="evenodd" />
</svg>
