<svg viewBox="0 0 48 48" xmlns="http://www.w3.org/2000/svg" xmlns:xlink="http://www.w3.org/1999/xlink" width="48.000000" height="48.000000" fill="none">
	<rect id="Icon" width="48.000000" height="48.000000" x="0.000000" y="0.000000" fill="rgb(255,255,255)" fill-opacity="0" />
	<path id="Vector" d="M40 42L40 38C40 35.8783 39.1571 33.8434 37.6569 32.3431C36.1566 30.8429 34.1217 30 32 30L30 30C29.4696 30 28.9609 29.7893 28.5858 29.4142C28.2107 29.0391 28 28.5304 28 28L28 18C28 16.9391 27.5786 15.9217 26.8284 15.1716C26.0783 14.4214 25.0609 14 24 14C22.9391 14 21.9217 14.4214 21.1716 15.1716C20.4214 15.9217 20 16.9391 20 18L20 36L15.2 29.6C14.8274 29.1032 14.3443 28.7 13.7889 28.4223C13.2334 28.1446 12.621 28 12 28L11.132 28C9.402 28 8 29.402 8 31.132C8 31.7 8.154 32.258 8.446 32.744L14 42M24 8L24 6M36 20L38 20M10 20L12 20M14.686 10.686L13.272 9.272M33.314 10.686L34.728 9.272" fill="rgb(76,175,79)" fill-rule="nonzero" />
	<path id="Vector" d="M40 42L40 38C40 35.8783 39.1571 33.8434 37.6569 32.3431C36.1566 30.8429 34.1217 30 32 30L30 30C29.4696 30 28.9609 29.7893 28.5858 29.4142C28.2107 29.0391 28 28.5304 28 28L28 18C28 16.9391 27.5786 15.9217 26.8284 15.1716C26.0783 14.4214 25.0609 14 24 14C22.9391 14 21.9217 14.4214 21.1716 15.1716C20.4214 15.9217 20 16.9391 20 18L20 36L15.2 29.6C14.8274 29.1032 14.3443 28.7 13.7889 28.4223C13.2334 28.1446 12.621 28 12 28L11.132 28C9.402 28 8 29.402 8 31.132C8 31.7 8.154 32.258 8.446 32.744L14 42M24 8L24 6M36 20L38 20M10 20L12 20M14.686 10.686L13.272 9.272M33.314 10.686L34.728 9.272" fill-rule="nonzero" stroke="rgb(76,175,79)" stroke-linecap="round" stroke-linejoin="round" stroke-width="2" />
</svg>
