<svg viewBox="0 0 52 20" xmlns="http://www.w3.org/2000/svg" xmlns:xlink="http://www.w3.org/1999/xlink" width="52.000000" height="20.000000" fill="none">
	<rect id="Logo" width="52.000000" height="20.000000" x="0.000000" y="0.000000" fill="rgb(255,255,255)" fill-opacity="0" />
	<path id="Vector" d="M12.3431 0C10.3124 0 8.36487 0.8067 6.92893 2.24264L2.24264 6.92893C0.8067 8.36487 0 10.3124 0 12.3431C0 16.5719 3.42809 20 7.65687 20C9.6876 20 11.6351 19.1933 13.0711 17.7573L16.3126 14.5158L25.7573 5.07107C26.4431 4.38527 27.3733 4 28.3431 4C29.9669 4 31.3435 5.05827 31.8207 6.52271L34.8015 3.54197C33.4417 1.41223 31.0573 0 28.3431 0C26.3124 0 24.3649 0.8067 22.9289 2.24264L10.2427 14.9289C9.55687 15.6147 8.62673 16 7.65687 16C5.63723 16 4 14.3628 4 12.3431C4 11.3733 4.38527 10.4431 5.07107 9.75733L9.75733 5.07107C10.4431 4.38527 11.3733 4 12.3431 4C13.9669 4 15.3435 5.05832 15.8207 6.52281L18.8015 3.54205C17.4417 1.41227 15.0574 0 12.3431 0Z" fill="rgb(57,65,73)" fill-rule="nonzero" />
	<path id="Vector" d="M26.2426 14.9289C25.5568 15.6147 24.6267 16 23.6568 16C22.0333 16 20.6568 14.942 20.1794 13.4778L17.1987 16.4585C18.5586 18.5879 20.9428 20 23.6568 20C25.6875 20 27.6351 19.1933 29.071 17.7573L41.7573 5.07107C42.4431 4.38527 43.3732 4 44.3431 4C46.3627 4 47.9999 5.63723 47.9999 7.65687C47.9999 8.62673 47.6147 9.55687 46.9289 10.2427L42.2426 14.9289C41.5568 15.6147 40.6267 16 39.6568 16C38.0331 16 36.6566 14.9418 36.1793 13.4775L33.1986 16.4582C34.5584 18.5879 36.9427 20 39.6568 20C41.6875 20 43.6351 19.1933 45.071 17.7573L49.7573 13.0711C51.1932 11.6351 51.9999 9.6876 51.9999 7.65687C51.9999 3.42809 48.5719 0 44.3431 0C42.3123 0 40.3648 0.8067 38.9289 2.24264L26.2426 14.9289Z" fill="rgb(57,65,73)" fill-rule="nonzero" />
</svg>
