<svg viewBox="0 0 55 30" xmlns="http://www.w3.org/2000/svg" xmlns:xlink="http://www.w3.org/1999/xlink" width="55.000000" height="30.000000" fill="none">
	<rect id="Logo" width="55.000000" height="30.000000" x="0.000000" y="0.000000" fill="rgb(255,255,255)" fill-opacity="0" />
	<path id="Vector" d="M54.9957 10.6697C55.0015 10.6279 55.0015 10.5858 54.9957 10.5441C55.0011 10.5101 55.0011 10.4755 54.9957 10.4414L54.5883 7.50877C54.5295 7.15792 54.3723 6.82999 54.1344 6.56166L54.0645 6.48178L53.9365 6.35625L46.8829 0.399675L47.0808 0.593678C46.9189 0.403795 46.7157 0.251914 46.4861 0.149222C46.2565 0.0465303 46.0062 -0.00436252 45.7539 0.000298064L43.6122 0.000298064C43.2639 -0.0064666 42.9236 0.102086 42.6461 0.308402C42.3547 0.103328 42.0038 -0.00466859 41.6451 0.000298064L39.5034 0.000298064C39.2225 -0.00416973 38.9454 0.0641735 38.7001 0.198428C38.4549 0.332683 38.2501 0.528082 38.1067 0.764835C37.8855 1.10299 37.8023 1.51041 37.8738 1.90595L38.1416 3.75453C37.9642 3.65596 37.7635 3.60482 37.5596 3.6062L27.1887 3.6062C26.8166 3.60849 26.4531 3.71541 26.1411 3.91429C25.8395 4.0994 25.5973 4.36447 25.4428 4.67882L24.6396 4.00558C24.3235 3.71884 23.9063 3.56343 23.4757 3.57196L7.20353 3.57196C6.83012 3.57863 6.46501 3.6809 6.14436 3.86865C5.70569 4.12037 5.38421 4.52965 5.24809 5.00975L0.0801167 21.9552C-0.0164452 22.2344 -0.0259442 22.5355 0.0528362 22.8201C0.131617 23.1046 0.295109 23.3597 0.522426 23.5528C0.581658 23.602 0.643851 23.6477 0.708664 23.6897C0.708664 23.6897 0.603891 23.6212 0.545692 23.5642L7.59931 29.5322C7.89769 29.8015 8.28781 29.952 8.69336 29.9543L25.0936 29.9543C25.4681 29.9448 25.8335 29.8385 26.1528 29.6462C26.3334 29.5495 26.495 29.422 26.63 29.2696L26.6882 29.1898L26.7813 29.0757L26.8512 28.9501L27.6194 29.6006C27.9135 29.8592 28.2951 30.0015 28.6902 30L45.1253 30C45.4994 29.9878 45.8641 29.8817 46.1845 29.6919C46.361 29.5892 46.5217 29.4624 46.6618 29.3153L46.7199 29.2354L46.813 29.1214C46.8625 29.0491 46.9054 28.9728 46.941 28.8931C46.9791 28.8239 47.0103 28.7513 47.0342 28.6763L51.7482 13.2029L51.7482 13.066C51.754 13.0129 51.754 12.9593 51.7482 12.9062L51.7482 12.8035C51.7539 12.7695 51.7539 12.7348 51.7482 12.7008C51.7535 12.6286 51.7535 12.5562 51.7482 12.484L53.2614 12.484C53.393 12.4958 53.5255 12.4958 53.6571 12.484L53.7619 12.484C53.8471 12.4591 53.9291 12.4246 54.0063 12.3813L54.1227 12.3813L54.3322 12.2215L54.4253 12.1531L54.5883 11.9476L54.5883 11.8792L54.7047 11.6852C54.6982 11.6475 54.6982 11.6089 54.7047 11.5711C54.6985 11.5526 54.6985 11.5326 54.7047 11.5141C54.7294 11.4472 54.7489 11.3785 54.7629 11.3087C54.7575 11.2861 54.7575 11.2627 54.7629 11.2402C54.7572 11.2062 54.7572 11.1715 54.7629 11.1375C54.7629 11.1375 54.9957 10.6925 54.9957 10.6697Z" fill="rgb(0,0,0)" fill-rule="nonzero" />
	<path id="Vector" d="M23.9529 4.87279C24.0147 4.92757 24.0579 4.9996 24.0766 5.07917C24.0954 5.15875 24.0887 5.24203 24.0577 5.31781L18.9014 22.2518C18.8365 22.4367 18.7036 22.5913 18.5289 22.6855C18.3868 22.7787 18.2222 22.8338 18.0517 22.8452L1.66316 22.8452C1.5232 22.8386 1.39061 22.7818 1.29069 22.6855C1.23125 22.6316 1.18954 22.5615 1.17087 22.4843C1.15221 22.4071 1.15747 22.3262 1.18594 22.2518L6.35391 5.31781C6.41346 5.1306 6.54212 4.9719 6.71474 4.87279C6.85924 4.78625 7.023 4.73535 7.19196 4.72444L23.5805 4.72444C23.7193 4.72575 23.8525 4.77879 23.9529 4.87279ZM15.3978 18.8399L18.4823 8.72971L9.84581 8.72971L6.77292 18.8399L15.3978 18.8399ZM39.5965 5.04394C39.6525 5.10765 39.7223 5.15817 39.801 5.19175C39.8796 5.22534 39.9648 5.24113 40.0505 5.23793L42.1805 5.23793C42.2617 5.23871 42.3416 5.21921 42.4129 5.18128C42.4842 5.14334 42.5444 5.08822 42.5879 5.02112C42.6257 4.96871 42.6525 4.90938 42.6665 4.84665C42.6804 4.78393 42.6814 4.71909 42.6694 4.65598L42.2504 1.64345C42.2105 1.50403 42.1388 1.37528 42.0409 1.26688C41.9849 1.20318 41.9151 1.15266 41.8365 1.11907C41.7579 1.08549 41.6726 1.06971 41.5869 1.0729L39.4569 1.0729C39.3758 1.07212 39.2958 1.09162 39.2245 1.12956C39.1533 1.16749 39.093 1.22261 39.0495 1.28971C38.968 1.44946 38.9331 1.55216 38.968 1.64345L39.3987 4.65598C39.4208 4.80266 39.4901 4.93858 39.5965 5.04394ZM46.3592 1.62063C46.3192 1.4812 46.2476 1.35245 46.1496 1.24406C46.0961 1.18059 46.0283 1.13008 45.9516 1.09644C45.8749 1.0628 45.7913 1.04693 45.7073 1.05007L43.5656 1.05007C43.4859 1.04785 43.407 1.06682 43.3373 1.10499C43.2676 1.14316 43.2098 1.19911 43.1699 1.26688C43.0925 1.36812 43.0589 1.49528 43.0768 1.62063L43.5074 4.63315C43.5345 4.77829 43.6031 4.91287 43.7053 5.02112C43.7622 5.08358 43.8323 5.13325 43.9107 5.16673C43.9891 5.20021 44.0738 5.21671 44.1592 5.2151L46.301 5.2151C46.3806 5.21614 46.4589 5.19666 46.5284 5.1586C46.5979 5.12055 46.6559 5.06528 46.6967 4.99831C46.7372 4.94725 46.7655 4.88794 46.7796 4.82476C46.7937 4.76158 46.7932 4.69612 46.7782 4.63315L46.3592 1.62063ZM37.7226 6.18505L37.513 4.70161L27.1888 4.70161C27.0267 4.71037 26.8698 4.76161 26.7348 4.84996C26.6491 4.89579 26.5744 4.95931 26.5162 5.03614C26.458 5.11298 26.4174 5.20129 26.3973 5.29499L25.5359 8.12491C25.5016 8.19564 25.4898 8.27499 25.5023 8.35239C25.5148 8.42979 25.5508 8.50164 25.6058 8.55856C25.7039 8.64901 25.832 8.70174 25.9666 8.70691L38.5141 8.70691L35.4296 18.8171L22.917 18.8171C22.7557 18.8207 22.5986 18.8681 22.4631 18.954C22.2985 19.0565 22.1783 19.215 22.1256 19.3991L21.2526 22.229C21.2241 22.3016 21.2166 22.3805 21.231 22.457C21.2454 22.5336 21.281 22.6047 21.334 22.6626C21.4291 22.7591 21.5582 22.8163 21.6949 22.8224L38.1299 22.8224C38.2999 22.808 38.4638 22.7532 38.6071 22.6626C38.779 22.568 38.908 22.4131 38.968 22.229L43.6936 6.75561L38.3744 6.75561C38.29 6.75724 38.2062 6.74188 38.1281 6.71047C38.05 6.67907 37.9794 6.63228 37.9205 6.57302C37.8242 6.46954 37.7562 6.34396 37.7226 6.20788L37.7226 6.18505Z" fill="rgb(255,255,255)" fill-rule="nonzero" />
</svg>
