<svg viewBox="0 0 43.2713 29.6718" xmlns="http://www.w3.org/2000/svg" xmlns:xlink="http://www.w3.org/1999/xlink" width="43.271301" height="29.671753" fill="none" customFrame="#000000">
	<rect id="Icon" width="43.271294" height="29.671743" x="0.000000" y="0.000000" fill="rgb(255,255,255)" fill-opacity="0" />
	<path id="Vector" d="M23.2259 16.238L16.561 27.6528L9.89611 16.238L23.2259 16.238ZM25.0114 15.2178L8.10339 15.2178L16.561 29.6719L25.0114 15.2178Z" fill="rgb(255,255,255)" fill-rule="nonzero" />
	<path id="Vector" d="M34.8137 2.0404L41.4786 13.4552L28.1487 13.4552L34.8137 2.0404ZM34.8137 0L26.356 14.454L43.2713 14.454L34.8137 0Z" fill="rgb(255,255,255)" fill-rule="nonzero" />
	<path id="Vector" d="M0 0L7.09143 12.7846L14.8406 0.321025L0 0Z" fill="rgb(76,175,79)" fill-rule="nonzero" />
	<path id="Vector" d="M16.5612 1.12012L23.9996 13.8334L9.10834 13.8334L16.5612 1.12012Z" fill="rgb(76,175,79)" fill-rule="nonzero" />
	<path id="Vector" d="M25.9152 16.6089L33.3608 29.6718L18.1154 29.6718L25.6838 16.6089L25.9152 16.6089Z" fill="rgb(76,175,79)" fill-rule="nonzero" />
	<path id="Vector" d="M27.5271 15.8169L34.8137 28.68L42.2014 15.8169L27.5271 15.8169Z" fill="rgb(76,175,79)" fill-rule="nonzero" />
</svg>
