<svg viewBox="0 0 35 24" xmlns="http://www.w3.org/2000/svg" xmlns:xlink="http://www.w3.org/1999/xlink" width="35.000000" height="24.000000" fill="none" customFrame="#000000">
	<rect id="Icon" width="35.000000" height="24.000000" x="0.000000" y="0.000000" fill="rgb(255,255,255)" fill-opacity="0" />
	<path id="Vector" d="M18.7863 13.134L13.3954 22.3669L8.00448 13.134L18.7863 13.134ZM20.2305 12.3088L6.55444 12.3088L13.3954 24L20.2305 12.3088Z" fill="rgb(38,50,56)" fill-rule="nonzero" />
	<path id="Vector" d="M28.1591 1.65038L33.55 10.8833L22.7681 10.8833L28.1591 1.65038ZM28.1591 0L21.3181 11.6912L35 11.6912L28.1591 0Z" fill="rgb(38,50,56)" fill-rule="nonzero" />
	<path id="Vector" d="M0 0L5.7359 10.3409L12.0038 0.259661L0 0Z" fill="rgb(76,175,79)" fill-rule="nonzero" />
	<path id="Vector" d="M13.3955 0.905884L19.4121 11.189L7.36728 11.189L13.3955 0.905884Z" fill="rgb(76,175,79)" fill-rule="nonzero" />
	<path id="Vector" d="M20.9615 13.434L26.9839 24L14.6526 24L20.7744 13.434L20.9615 13.434Z" fill="rgb(76,175,79)" fill-rule="nonzero" />
	<path id="Vector" d="M22.2653 12.7935L28.1591 23.1978L34.1347 12.7935L22.2653 12.7935Z" fill="rgb(76,175,79)" fill-rule="nonzero" />
</svg>
